<?xml version="1.0" encoding="UTF-8" standalone="no"?>
<!DOCTYPE svg PUBLIC "-//W3C//DTD SVG 1.1//EN"
 "http://www.w3.org/Graphics/SVG/1.1/DTD/svg11.dtd">
<!-- Generated by graphviz version 2.26.3 (20100126.1600)
 -->
<!-- Title: controllers_diagram Pages: 1 -->
<svg width="860pt" height="637pt"
 viewBox="0.00 0.00 860.00 637.17" xmlns="http://www.w3.org/2000/svg" xmlns:xlink="http://www.w3.org/1999/xlink">
<g id="graph1" class="graph" transform="scale(1 1) rotate(0) translate(4 633.169)">
<title>controllers_diagram</title>
<polygon fill="white" stroke="white" points="-4,5 -4,-633.169 857,-633.169 857,5 -4,5"/>
<!-- _diagram_info -->
<g id="node1" class="node"><title>_diagram_info</title>
<text text-anchor="start" x="609" y="-78.3" font-family="Times Roman,serif" font-size="13.00">Controllers diagram</text>
<text text-anchor="start" x="609" y="-61.3" font-family="Times Roman,serif" font-size="13.00">Date: Jan 16 2013 &#45; 12:59</text>
<text text-anchor="start" x="609" y="-44.3" font-family="Times Roman,serif" font-size="13.00">Migration version: 20130116175813</text>
<text text-anchor="start" x="609" y="-27.3" font-family="Times Roman,serif" font-size="13.00">Generated by RailRoady 1.1.0</text>
<text text-anchor="start" x="609" y="-10.3" font-family="Times Roman,serif" font-size="13.00">http://railroady.prestonlee.com</text>
</g>
<!-- UploadsController -->
<g id="node2" class="node"><title>UploadsController</title>
<polyline fill="none" stroke="black" points="53.3693,-1.5 169.369,-1.5 "/>
<path fill="none" stroke="black" d="M169.369,-1.5C175.369,-1.5 181.369,-7.5 181.369,-13.5"/>
<polyline fill="none" stroke="black" points="181.369,-13.5 181.369,-199.5 "/>
<path fill="none" stroke="black" d="M181.369,-199.5C181.369,-205.5 175.369,-211.5 169.369,-211.5"/>
<polyline fill="none" stroke="black" points="169.369,-211.5 53.3693,-211.5 "/>
<path fill="none" stroke="black" d="M53.3693,-211.5C47.3693,-211.5 41.3693,-205.5 41.3693,-199.5"/>
<polyline fill="none" stroke="black" points="41.3693,-199.5 41.3693,-13.5 "/>
<path fill="none" stroke="black" d="M41.3693,-13.5C41.3693,-7.5 47.3693,-1.5 53.3693,-1.5"/>
<text text-anchor="middle" x="111.369" y="-194.9" font-family="Times Roman,serif" font-size="14.00">UploadsController</text>
<polyline fill="none" stroke="black" points="41.3693,-185.5 181.369,-185.5 "/>
<text text-anchor="start" x="49.3693" y="-168.9" font-family="Times Roman,serif" font-size="14.00">create</text>
<text text-anchor="start" x="49.3693" y="-150.9" font-family="Times Roman,serif" font-size="14.00">destroy</text>
<text text-anchor="start" x="49.3693" y="-132.9" font-family="Times Roman,serif" font-size="14.00">edit</text>
<text text-anchor="start" x="49.3693" y="-114.9" font-family="Times Roman,serif" font-size="14.00">index</text>
<text text-anchor="start" x="49.3693" y="-96.9" font-family="Times Roman,serif" font-size="14.00">new</text>
<text text-anchor="start" x="49.3693" y="-78.9" font-family="Times Roman,serif" font-size="14.00">show</text>
<text text-anchor="start" x="49.3693" y="-60.9" font-family="Times Roman,serif" font-size="14.00">update</text>
<polyline fill="none" stroke="black" points="41.3693,-51.5 181.369,-51.5 "/>
<polyline fill="none" stroke="black" points="41.3693,-27.5 181.369,-27.5 "/>
<text text-anchor="start" x="49.3693" y="-10.9" font-family="Times Roman,serif" font-size="14.00">_layout</text>
</g>
<!-- BountiesController -->
<g id="node3" class="node"><title>BountiesController</title>
<polyline fill="none" stroke="black" points="379.809,-5.6733 501.809,-5.6733 "/>
<path fill="none" stroke="black" d="M501.809,-5.6733C507.809,-5.6733 513.809,-11.6733 513.809,-17.6733"/>
<polyline fill="none" stroke="black" points="513.809,-17.6733 513.809,-203.673 "/>
<path fill="none" stroke="black" d="M513.809,-203.673C513.809,-209.673 507.809,-215.673 501.809,-215.673"/>
<polyline fill="none" stroke="black" points="501.809,-215.673 379.809,-215.673 "/>
<path fill="none" stroke="black" d="M379.809,-215.673C373.809,-215.673 367.809,-209.673 367.809,-203.673"/>
<polyline fill="none" stroke="black" points="367.809,-203.673 367.809,-17.6733 "/>
<path fill="none" stroke="black" d="M367.809,-17.6733C367.809,-11.6733 373.809,-5.6733 379.809,-5.6733"/>
<text text-anchor="middle" x="440.809" y="-199.073" font-family="Times Roman,serif" font-size="14.00">BountiesController</text>
<polyline fill="none" stroke="black" points="367.809,-189.673 513.809,-189.673 "/>
<text text-anchor="start" x="375.809" y="-173.073" font-family="Times Roman,serif" font-size="14.00">create</text>
<text text-anchor="start" x="375.809" y="-155.073" font-family="Times Roman,serif" font-size="14.00">destroy</text>
<text text-anchor="start" x="375.809" y="-137.073" font-family="Times Roman,serif" font-size="14.00">edit</text>
<text text-anchor="start" x="375.809" y="-119.073" font-family="Times Roman,serif" font-size="14.00">index</text>
<text text-anchor="start" x="375.809" y="-101.073" font-family="Times Roman,serif" font-size="14.00">new</text>
<text text-anchor="start" x="375.809" y="-83.0733" font-family="Times Roman,serif" font-size="14.00">show</text>
<text text-anchor="start" x="375.809" y="-65.0733" font-family="Times Roman,serif" font-size="14.00">update</text>
<polyline fill="none" stroke="black" points="367.809,-55.6733 513.809,-55.6733 "/>
<polyline fill="none" stroke="black" points="367.809,-31.6733 513.809,-31.6733 "/>
<text text-anchor="start" x="375.809" y="-15.0733" font-family="Times Roman,serif" font-size="14.00">_layout</text>
</g>
<!-- ApplicationController -->
<g id="node4" class="node"><title>ApplicationController</title>
<polyline fill="none" stroke="black" points="168.883,-229.859 382.883,-229.859 "/>
<path fill="none" stroke="black" d="M382.883,-229.859C388.883,-229.859 394.883,-235.859 394.883,-241.859"/>
<polyline fill="none" stroke="black" points="394.883,-241.859 394.883,-319.859 "/>
<path fill="none" stroke="black" d="M394.883,-319.859C394.883,-325.859 388.883,-331.859 382.883,-331.859"/>
<polyline fill="none" stroke="black" points="382.883,-331.859 168.883,-331.859 "/>
<path fill="none" stroke="black" d="M168.883,-331.859C162.883,-331.859 156.883,-325.859 156.883,-319.859"/>
<polyline fill="none" stroke="black" points="156.883,-319.859 156.883,-241.859 "/>
<path fill="none" stroke="black" d="M156.883,-241.859C156.883,-235.859 162.883,-229.859 168.883,-229.859"/>
<text text-anchor="middle" x="275.883" y="-315.259" font-family="Times Roman,serif" font-size="14.00">ApplicationController</text>
<polyline fill="none" stroke="black" points="156.883,-305.859 394.883,-305.859 "/>
<text text-anchor="start" x="164.883" y="-289.259" font-family="Times Roman,serif" font-size="14.00">_one_time_conditions_valid_48?</text>
<polyline fill="none" stroke="black" points="156.883,-279.859 394.883,-279.859 "/>
<polyline fill="none" stroke="black" points="156.883,-255.859 394.883,-255.859 "/>
<text text-anchor="start" x="164.883" y="-239.259" font-family="Times Roman,serif" font-size="14.00">_layout</text>
</g>
<!-- ApplicationController&#45;&gt;UploadsController -->
<g id="edge2" class="edge"><title>ApplicationController&#45;&gt;UploadsController</title>
<path fill="none" stroke="black" d="M227.414,-229.489C213.007,-214.22 196.927,-197.177 181.436,-180.76"/>
</g>
<!-- ApplicationController&#45;&gt;BountiesController -->
<g id="edge4" class="edge"><title>ApplicationController&#45;&gt;BountiesController</title>
<path fill="none" stroke="black" d="M325.366,-229.798C338.65,-216.09 353.3,-200.973 367.577,-186.241"/>
</g>
<!-- SubmissionsController -->
<g id="node5" class="node"><title>SubmissionsController</title>
<polyline fill="none" stroke="black" points="186.007,-417.669 332.007,-417.669 "/>
<path fill="none" stroke="black" d="M332.007,-417.669C338.007,-417.669 344.007,-423.669 344.007,-429.669"/>
<polyline fill="none" stroke="black" points="344.007,-429.669 344.007,-615.669 "/>
<path fill="none" stroke="black" d="M344.007,-615.669C344.007,-621.669 338.007,-627.669 332.007,-627.669"/>
<polyline fill="none" stroke="black" points="332.007,-627.669 186.007,-627.669 "/>
<path fill="none" stroke="black" d="M186.007,-627.669C180.007,-627.669 174.007,-621.669 174.007,-615.669"/>
<polyline fill="none" stroke="black" points="174.007,-615.669 174.007,-429.669 "/>
<path fill="none" stroke="black" d="M174.007,-429.669C174.007,-423.669 180.007,-417.669 186.007,-417.669"/>
<text text-anchor="middle" x="259.007" y="-611.069" font-family="Times Roman,serif" font-size="14.00">SubmissionsController</text>
<polyline fill="none" stroke="black" points="174.007,-601.669 344.007,-601.669 "/>
<text text-anchor="start" x="182.007" y="-585.069" font-family="Times Roman,serif" font-size="14.00">create</text>
<text text-anchor="start" x="182.007" y="-567.069" font-family="Times Roman,serif" font-size="14.00">destroy</text>
<text text-anchor="start" x="182.007" y="-549.069" font-family="Times Roman,serif" font-size="14.00">edit</text>
<text text-anchor="start" x="182.007" y="-531.069" font-family="Times Roman,serif" font-size="14.00">index</text>
<text text-anchor="start" x="182.007" y="-513.069" font-family="Times Roman,serif" font-size="14.00">new</text>
<text text-anchor="start" x="182.007" y="-495.069" font-family="Times Roman,serif" font-size="14.00">show</text>
<text text-anchor="start" x="182.007" y="-477.069" font-family="Times Roman,serif" font-size="14.00">update</text>
<polyline fill="none" stroke="black" points="174.007,-467.669 344.007,-467.669 "/>
<polyline fill="none" stroke="black" points="174.007,-443.669 344.007,-443.669 "/>
<text text-anchor="start" x="182.007" y="-427.069" font-family="Times Roman,serif" font-size="14.00">_layout</text>
</g>
<!-- ApplicationController&#45;&gt;SubmissionsController -->
<g id="edge6" class="edge"><title>ApplicationController&#45;&gt;SubmissionsController</title>
<path fill="none" stroke="black" d="M272.304,-332.141C270.572,-356.956 268.426,-387.708 266.367,-417.212"/>
</g>
<!-- UsersController -->
<g id="node6" class="node"><title>UsersController</title>
<polyline fill="none" stroke="black" points="369.563,-361.101 583.563,-361.101 "/>
<path fill="none" stroke="black" d="M583.563,-361.101C589.563,-361.101 595.563,-367.101 595.563,-373.101"/>
<polyline fill="none" stroke="black" points="595.563,-373.101 595.563,-523.101 "/>
<path fill="none" stroke="black" d="M595.563,-523.101C595.563,-529.101 589.563,-535.101 583.563,-535.101"/>
<polyline fill="none" stroke="black" points="583.563,-535.101 369.563,-535.101 "/>
<path fill="none" stroke="black" d="M369.563,-535.101C363.563,-535.101 357.563,-529.101 357.563,-523.101"/>
<polyline fill="none" stroke="black" points="357.563,-523.101 357.563,-373.101 "/>
<path fill="none" stroke="black" d="M357.563,-373.101C357.563,-367.101 363.563,-361.101 369.563,-361.101"/>
<text text-anchor="middle" x="476.563" y="-518.501" font-family="Times Roman,serif" font-size="14.00">UsersController</text>
<polyline fill="none" stroke="black" points="357.563,-509.101 595.563,-509.101 "/>
<text text-anchor="start" x="365.563" y="-492.501" font-family="Times Roman,serif" font-size="14.00">_one_time_conditions_valid_50?</text>
<text text-anchor="start" x="365.563" y="-474.501" font-family="Times Roman,serif" font-size="14.00">destroy</text>
<text text-anchor="start" x="365.563" y="-456.501" font-family="Times Roman,serif" font-size="14.00">index</text>
<text text-anchor="start" x="365.563" y="-438.501" font-family="Times Roman,serif" font-size="14.00">show</text>
<text text-anchor="start" x="365.563" y="-420.501" font-family="Times Roman,serif" font-size="14.00">update</text>
<polyline fill="none" stroke="black" points="357.563,-411.101 595.563,-411.101 "/>
<polyline fill="none" stroke="black" points="357.563,-387.101 595.563,-387.101 "/>
<text text-anchor="start" x="365.563" y="-370.501" font-family="Times Roman,serif" font-size="14.00">_layout</text>
</g>
<!-- ApplicationController&#45;&gt;UsersController -->
<g id="edge8" class="edge"><title>ApplicationController&#45;&gt;UsersController</title>
<path fill="none" stroke="black" d="M337.184,-331.946C348.25,-341.168 360.066,-351.015 371.962,-360.929"/>
</g>
<!-- HomeController -->
<g id="node7" class="node"><title>HomeController</title>
<polyline fill="none" stroke="black" points="13,-383.722 114,-383.722 "/>
<path fill="none" stroke="black" d="M114,-383.722C120,-383.722 126,-389.722 126,-395.722"/>
<polyline fill="none" stroke="black" points="126,-395.722 126,-473.722 "/>
<path fill="none" stroke="black" d="M126,-473.722C126,-479.722 120,-485.722 114,-485.722"/>
<polyline fill="none" stroke="black" points="114,-485.722 13,-485.722 "/>
<path fill="none" stroke="black" d="M13,-485.722C7,-485.722 1,-479.722 1,-473.722"/>
<polyline fill="none" stroke="black" points="1,-473.722 1,-395.722 "/>
<path fill="none" stroke="black" d="M1,-395.722C1,-389.722 7,-383.722 13,-383.722"/>
<text text-anchor="middle" x="63.5" y="-469.122" font-family="Times Roman,serif" font-size="14.00">HomeController</text>
<polyline fill="none" stroke="black" points="1,-459.722 126,-459.722 "/>
<text text-anchor="start" x="9" y="-443.122" font-family="Times Roman,serif" font-size="14.00">index</text>
<polyline fill="none" stroke="black" points="1,-433.722 126,-433.722 "/>
<polyline fill="none" stroke="black" points="1,-409.722 126,-409.722 "/>
<text text-anchor="start" x="9" y="-393.122" font-family="Times Roman,serif" font-size="14.00">_layout</text>
</g>
<!-- ApplicationController&#45;&gt;HomeController -->
<g id="edge10" class="edge"><title>ApplicationController&#45;&gt;HomeController</title>
<path fill="none" stroke="black" d="M205.458,-331.879C179.859,-350.424 151.121,-371.244 126.232,-389.275"/>
</g>
</g>
</svg>
