<?xml version="1.0" encoding="UTF-8" standalone="no"?>
<!DOCTYPE svg PUBLIC "-//W3C//DTD SVG 1.1//EN"
 "http://www.w3.org/Graphics/SVG/1.1/DTD/svg11.dtd">
<!-- Generated by graphviz version 2.26.3 (20100126.1600)
 -->
<!-- Title: controllers_diagram Pages: 1 -->
<svg width="860pt" height="637pt"
 viewBox="0.00 0.00 860.00 637.07" xmlns="http://www.w3.org/2000/svg" xmlns:xlink="http://www.w3.org/1999/xlink">
<g id="graph1" class="graph" transform="scale(1 1) rotate(0) translate(4 633.065)">
<title>controllers_diagram</title>
<polygon fill="white" stroke="white" points="-4,5 -4,-633.065 857,-633.065 857,5 -4,5"/>
<!-- _diagram_info -->
<g id="node1" class="node"><title>_diagram_info</title>
<text text-anchor="start" x="609" y="-78.3" font-family="Times Roman,serif" font-size="13.00">Controllers diagram</text>
<text text-anchor="start" x="609" y="-61.3" font-family="Times Roman,serif" font-size="13.00">Date: Jan 16 2013 &#45; 13:05</text>
<text text-anchor="start" x="609" y="-44.3" font-family="Times Roman,serif" font-size="13.00">Migration version: 20130116180154</text>
<text text-anchor="start" x="609" y="-27.3" font-family="Times Roman,serif" font-size="13.00">Generated by RailRoady 1.1.0</text>
<text text-anchor="start" x="609" y="-10.3" font-family="Times Roman,serif" font-size="13.00">http://railroady.prestonlee.com</text>
</g>
<!-- UploadsController -->
<g id="node2" class="node"><title>UploadsController</title>
<polyline fill="none" stroke="black" points="54.252,-1.5 170.252,-1.5 "/>
<path fill="none" stroke="black" d="M170.252,-1.5C176.252,-1.5 182.252,-7.5 182.252,-13.5"/>
<polyline fill="none" stroke="black" points="182.252,-13.5 182.252,-199.5 "/>
<path fill="none" stroke="black" d="M182.252,-199.5C182.252,-205.5 176.252,-211.5 170.252,-211.5"/>
<polyline fill="none" stroke="black" points="170.252,-211.5 54.252,-211.5 "/>
<path fill="none" stroke="black" d="M54.252,-211.5C48.252,-211.5 42.252,-205.5 42.252,-199.5"/>
<polyline fill="none" stroke="black" points="42.252,-199.5 42.252,-13.5 "/>
<path fill="none" stroke="black" d="M42.252,-13.5C42.252,-7.5 48.252,-1.5 54.252,-1.5"/>
<text text-anchor="middle" x="112.252" y="-194.9" font-family="Times Roman,serif" font-size="14.00">UploadsController</text>
<polyline fill="none" stroke="black" points="42.252,-185.5 182.252,-185.5 "/>
<text text-anchor="start" x="50.252" y="-168.9" font-family="Times Roman,serif" font-size="14.00">create</text>
<text text-anchor="start" x="50.252" y="-150.9" font-family="Times Roman,serif" font-size="14.00">destroy</text>
<text text-anchor="start" x="50.252" y="-132.9" font-family="Times Roman,serif" font-size="14.00">edit</text>
<text text-anchor="start" x="50.252" y="-114.9" font-family="Times Roman,serif" font-size="14.00">index</text>
<text text-anchor="start" x="50.252" y="-96.9" font-family="Times Roman,serif" font-size="14.00">new</text>
<text text-anchor="start" x="50.252" y="-78.9" font-family="Times Roman,serif" font-size="14.00">show</text>
<text text-anchor="start" x="50.252" y="-60.9" font-family="Times Roman,serif" font-size="14.00">update</text>
<polyline fill="none" stroke="black" points="42.252,-51.5 182.252,-51.5 "/>
<polyline fill="none" stroke="black" points="42.252,-27.5 182.252,-27.5 "/>
<text text-anchor="start" x="50.252" y="-10.9" font-family="Times Roman,serif" font-size="14.00">_layout</text>
</g>
<!-- BountiesController -->
<g id="node3" class="node"><title>BountiesController</title>
<polyline fill="none" stroke="black" points="384.723,-6.33911 506.723,-6.33911 "/>
<path fill="none" stroke="black" d="M506.723,-6.33911C512.723,-6.33911 518.723,-12.3391 518.723,-18.3391"/>
<polyline fill="none" stroke="black" points="518.723,-18.3391 518.723,-204.339 "/>
<path fill="none" stroke="black" d="M518.723,-204.339C518.723,-210.339 512.723,-216.339 506.723,-216.339"/>
<polyline fill="none" stroke="black" points="506.723,-216.339 384.723,-216.339 "/>
<path fill="none" stroke="black" d="M384.723,-216.339C378.723,-216.339 372.723,-210.339 372.723,-204.339"/>
<polyline fill="none" stroke="black" points="372.723,-204.339 372.723,-18.3391 "/>
<path fill="none" stroke="black" d="M372.723,-18.3391C372.723,-12.3391 378.723,-6.33911 384.723,-6.33911"/>
<text text-anchor="middle" x="445.723" y="-199.739" font-family="Times Roman,serif" font-size="14.00">BountiesController</text>
<polyline fill="none" stroke="black" points="372.723,-190.339 518.723,-190.339 "/>
<text text-anchor="start" x="380.723" y="-173.739" font-family="Times Roman,serif" font-size="14.00">create</text>
<text text-anchor="start" x="380.723" y="-155.739" font-family="Times Roman,serif" font-size="14.00">destroy</text>
<text text-anchor="start" x="380.723" y="-137.739" font-family="Times Roman,serif" font-size="14.00">edit</text>
<text text-anchor="start" x="380.723" y="-119.739" font-family="Times Roman,serif" font-size="14.00">index</text>
<text text-anchor="start" x="380.723" y="-101.739" font-family="Times Roman,serif" font-size="14.00">new</text>
<text text-anchor="start" x="380.723" y="-83.7391" font-family="Times Roman,serif" font-size="14.00">show</text>
<text text-anchor="start" x="380.723" y="-65.7391" font-family="Times Roman,serif" font-size="14.00">update</text>
<polyline fill="none" stroke="black" points="372.723,-56.3391 518.723,-56.3391 "/>
<polyline fill="none" stroke="black" points="372.723,-32.3391 518.723,-32.3391 "/>
<text text-anchor="start" x="380.723" y="-15.7391" font-family="Times Roman,serif" font-size="14.00">_layout</text>
</g>
<!-- ApplicationController -->
<g id="node4" class="node"><title>ApplicationController</title>
<polyline fill="none" stroke="black" points="170.916,-229.607 384.916,-229.607 "/>
<path fill="none" stroke="black" d="M384.916,-229.607C390.916,-229.607 396.916,-235.607 396.916,-241.607"/>
<polyline fill="none" stroke="black" points="396.916,-241.607 396.916,-319.607 "/>
<path fill="none" stroke="black" d="M396.916,-319.607C396.916,-325.607 390.916,-331.607 384.916,-331.607"/>
<polyline fill="none" stroke="black" points="384.916,-331.607 170.916,-331.607 "/>
<path fill="none" stroke="black" d="M170.916,-331.607C164.916,-331.607 158.916,-325.607 158.916,-319.607"/>
<polyline fill="none" stroke="black" points="158.916,-319.607 158.916,-241.607 "/>
<path fill="none" stroke="black" d="M158.916,-241.607C158.916,-235.607 164.916,-229.607 170.916,-229.607"/>
<text text-anchor="middle" x="277.916" y="-315.007" font-family="Times Roman,serif" font-size="14.00">ApplicationController</text>
<polyline fill="none" stroke="black" points="158.916,-305.607 396.916,-305.607 "/>
<text text-anchor="start" x="166.916" y="-289.007" font-family="Times Roman,serif" font-size="14.00">_one_time_conditions_valid_48?</text>
<polyline fill="none" stroke="black" points="158.916,-279.607 396.916,-279.607 "/>
<polyline fill="none" stroke="black" points="158.916,-255.607 396.916,-255.607 "/>
<text text-anchor="start" x="166.916" y="-239.007" font-family="Times Roman,serif" font-size="14.00">_layout</text>
</g>
<!-- ApplicationController&#45;&gt;UploadsController -->
<g id="edge2" class="edge"><title>ApplicationController&#45;&gt;UploadsController</title>
<path fill="none" stroke="black" d="M229.107,-229.311C214.504,-213.964 198.194,-196.822 182.501,-180.329"/>
</g>
<!-- ApplicationController&#45;&gt;BountiesController -->
<g id="edge4" class="edge"><title>ApplicationController&#45;&gt;BountiesController</title>
<path fill="none" stroke="black" d="M328.719,-229.361C342.513,-215.447 357.729,-200.098 372.497,-185.202"/>
</g>
<!-- SubmissionsController -->
<g id="node5" class="node"><title>SubmissionsController</title>
<polyline fill="none" stroke="black" points="187.577,-417.565 333.577,-417.565 "/>
<path fill="none" stroke="black" d="M333.577,-417.565C339.577,-417.565 345.577,-423.565 345.577,-429.565"/>
<polyline fill="none" stroke="black" points="345.577,-429.565 345.577,-615.565 "/>
<path fill="none" stroke="black" d="M345.577,-615.565C345.577,-621.565 339.577,-627.565 333.577,-627.565"/>
<polyline fill="none" stroke="black" points="333.577,-627.565 187.577,-627.565 "/>
<path fill="none" stroke="black" d="M187.577,-627.565C181.577,-627.565 175.577,-621.565 175.577,-615.565"/>
<polyline fill="none" stroke="black" points="175.577,-615.565 175.577,-429.565 "/>
<path fill="none" stroke="black" d="M175.577,-429.565C175.577,-423.565 181.577,-417.565 187.577,-417.565"/>
<text text-anchor="middle" x="260.577" y="-610.965" font-family="Times Roman,serif" font-size="14.00">SubmissionsController</text>
<polyline fill="none" stroke="black" points="175.577,-601.565 345.577,-601.565 "/>
<text text-anchor="start" x="183.577" y="-584.965" font-family="Times Roman,serif" font-size="14.00">create</text>
<text text-anchor="start" x="183.577" y="-566.965" font-family="Times Roman,serif" font-size="14.00">destroy</text>
<text text-anchor="start" x="183.577" y="-548.965" font-family="Times Roman,serif" font-size="14.00">edit</text>
<text text-anchor="start" x="183.577" y="-530.965" font-family="Times Roman,serif" font-size="14.00">index</text>
<text text-anchor="start" x="183.577" y="-512.965" font-family="Times Roman,serif" font-size="14.00">new</text>
<text text-anchor="start" x="183.577" y="-494.965" font-family="Times Roman,serif" font-size="14.00">show</text>
<text text-anchor="start" x="183.577" y="-476.965" font-family="Times Roman,serif" font-size="14.00">update</text>
<polyline fill="none" stroke="black" points="175.577,-467.565 345.577,-467.565 "/>
<polyline fill="none" stroke="black" points="175.577,-443.565 345.577,-443.565 "/>
<text text-anchor="start" x="183.577" y="-426.965" font-family="Times Roman,serif" font-size="14.00">_layout</text>
</g>
<!-- ApplicationController&#45;&gt;SubmissionsController -->
<g id="edge6" class="edge"><title>ApplicationController&#45;&gt;SubmissionsController</title>
<path fill="none" stroke="black" d="M274.26,-331.624C272.471,-356.581 270.249,-387.589 268.119,-417.31"/>
</g>
<!-- UsersController -->
<g id="node6" class="node"><title>UsersController</title>
<polyline fill="none" stroke="black" points="369.661,-361.682 592.661,-361.682 "/>
<path fill="none" stroke="black" d="M592.661,-361.682C598.661,-361.682 604.661,-367.682 604.661,-373.682"/>
<polyline fill="none" stroke="black" points="604.661,-373.682 604.661,-523.682 "/>
<path fill="none" stroke="black" d="M604.661,-523.682C604.661,-529.682 598.661,-535.682 592.661,-535.682"/>
<polyline fill="none" stroke="black" points="592.661,-535.682 369.661,-535.682 "/>
<path fill="none" stroke="black" d="M369.661,-535.682C363.661,-535.682 357.661,-529.682 357.661,-523.682"/>
<polyline fill="none" stroke="black" points="357.661,-523.682 357.661,-373.682 "/>
<path fill="none" stroke="black" d="M357.661,-373.682C357.661,-367.682 363.661,-361.682 369.661,-361.682"/>
<text text-anchor="middle" x="481.161" y="-519.082" font-family="Times Roman,serif" font-size="14.00">UsersController</text>
<polyline fill="none" stroke="black" points="357.661,-509.682 604.661,-509.682 "/>
<text text-anchor="start" x="365.661" y="-493.082" font-family="Times Roman,serif" font-size="14.00">_one_time_conditions_valid_106?</text>
<text text-anchor="start" x="365.661" y="-475.082" font-family="Times Roman,serif" font-size="14.00">destroy</text>
<text text-anchor="start" x="365.661" y="-457.082" font-family="Times Roman,serif" font-size="14.00">index</text>
<text text-anchor="start" x="365.661" y="-439.082" font-family="Times Roman,serif" font-size="14.00">show</text>
<text text-anchor="start" x="365.661" y="-421.082" font-family="Times Roman,serif" font-size="14.00">update</text>
<polyline fill="none" stroke="black" points="357.661,-411.682 604.661,-411.682 "/>
<polyline fill="none" stroke="black" points="357.661,-387.682 604.661,-387.682 "/>
<text text-anchor="start" x="365.661" y="-371.082" font-family="Times Roman,serif" font-size="14.00">_layout</text>
</g>
<!-- ApplicationController&#45;&gt;UsersController -->
<g id="edge8" class="edge"><title>ApplicationController&#45;&gt;UsersController</title>
<path fill="none" stroke="black" d="M339.724,-331.719C351.169,-341.184 363.415,-351.311 375.735,-361.499"/>
</g>
<!-- HomeController -->
<g id="node7" class="node"><title>HomeController</title>
<polyline fill="none" stroke="black" points="13,-383.697 114,-383.697 "/>
<path fill="none" stroke="black" d="M114,-383.697C120,-383.697 126,-389.697 126,-395.697"/>
<polyline fill="none" stroke="black" points="126,-395.697 126,-473.697 "/>
<path fill="none" stroke="black" d="M126,-473.697C126,-479.697 120,-485.697 114,-485.697"/>
<polyline fill="none" stroke="black" points="114,-485.697 13,-485.697 "/>
<path fill="none" stroke="black" d="M13,-485.697C7,-485.697 1,-479.697 1,-473.697"/>
<polyline fill="none" stroke="black" points="1,-473.697 1,-395.697 "/>
<path fill="none" stroke="black" d="M1,-395.697C1,-389.697 7,-383.697 13,-383.697"/>
<text text-anchor="middle" x="63.5" y="-469.097" font-family="Times Roman,serif" font-size="14.00">HomeController</text>
<polyline fill="none" stroke="black" points="1,-459.697 126,-459.697 "/>
<text text-anchor="start" x="9" y="-443.097" font-family="Times Roman,serif" font-size="14.00">index</text>
<polyline fill="none" stroke="black" points="1,-433.697 126,-433.697 "/>
<polyline fill="none" stroke="black" points="1,-409.697 126,-409.697 "/>
<text text-anchor="start" x="9" y="-393.097" font-family="Times Roman,serif" font-size="14.00">_layout</text>
</g>
<!-- ApplicationController&#45;&gt;HomeController -->
<g id="edge10" class="edge"><title>ApplicationController&#45;&gt;HomeController</title>
<path fill="none" stroke="black" d="M206.816,-331.702C180.729,-350.45 151.412,-371.519 126.122,-389.693"/>
</g>
</g>
</svg>
