<?xml version="1.0" encoding="UTF-8" standalone="no"?>
<!DOCTYPE svg PUBLIC "-//W3C//DTD SVG 1.1//EN"
 "http://www.w3.org/Graphics/SVG/1.1/DTD/svg11.dtd">
<!-- Generated by graphviz version 2.26.3 (20100126.1600)
 -->
<!-- Title: controllers_diagram Pages: 1 -->
<svg width="1394pt" height="1108pt"
 viewBox="0.00 0.00 1394.00 1107.97" xmlns="http://www.w3.org/2000/svg" xmlns:xlink="http://www.w3.org/1999/xlink">
<g id="graph1" class="graph" transform="scale(1 1) rotate(0) translate(4 1103.97)">
<title>controllers_diagram</title>
<polygon fill="white" stroke="white" points="-4,5 -4,-1103.97 1391,-1103.97 1391,5 -4,5"/>
<!-- _diagram_info -->
<g id="node1" class="node"><title>_diagram_info</title>
<text text-anchor="start" x="1143" y="-78.3" font-family="Times Roman,serif" font-size="13.00">Controllers diagram</text>
<text text-anchor="start" x="1143" y="-61.3" font-family="Times Roman,serif" font-size="13.00">Date: Jan 18 2013 &#45; 16:07</text>
<text text-anchor="start" x="1143" y="-44.3" font-family="Times Roman,serif" font-size="13.00">Migration version: 20130118041607</text>
<text text-anchor="start" x="1143" y="-27.3" font-family="Times Roman,serif" font-size="13.00">Generated by RailRoady 1.1.0</text>
<text text-anchor="start" x="1143" y="-10.3" font-family="Times Roman,serif" font-size="13.00">http://railroady.prestonlee.com</text>
</g>
<!-- UploadsController -->
<g id="node2" class="node"><title>UploadsController</title>
<polyline fill="none" stroke="black" points="56.4386,-455.446 279.439,-455.446 "/>
<path fill="none" stroke="black" d="M279.439,-455.446C285.439,-455.446 291.439,-461.446 291.439,-467.446"/>
<polyline fill="none" stroke="black" points="291.439,-467.446 291.439,-725.446 "/>
<path fill="none" stroke="black" d="M291.439,-725.446C291.439,-731.446 285.439,-737.446 279.439,-737.446"/>
<polyline fill="none" stroke="black" points="279.439,-737.446 56.4386,-737.446 "/>
<path fill="none" stroke="black" d="M56.4386,-737.446C50.4386,-737.446 44.4386,-731.446 44.4386,-725.446"/>
<polyline fill="none" stroke="black" points="44.4386,-725.446 44.4386,-467.446 "/>
<path fill="none" stroke="black" d="M44.4386,-467.446C44.4386,-461.446 50.4386,-455.446 56.4386,-455.446"/>
<text text-anchor="middle" x="167.939" y="-720.846" font-family="Times Roman,serif" font-size="14.00">UploadsController</text>
<polyline fill="none" stroke="black" points="44.4386,-711.446 291.439,-711.446 "/>
<text text-anchor="start" x="52.4386" y="-694.846" font-family="Times Roman,serif" font-size="14.00">_callback_before_213</text>
<text text-anchor="start" x="52.4386" y="-676.846" font-family="Times Roman,serif" font-size="14.00">_one_time_conditions_valid_214?</text>
<text text-anchor="start" x="52.4386" y="-658.846" font-family="Times Roman,serif" font-size="14.00">_one_time_conditions_valid_216?</text>
<text text-anchor="start" x="52.4386" y="-640.846" font-family="Times Roman,serif" font-size="14.00">create</text>
<text text-anchor="start" x="52.4386" y="-622.846" font-family="Times Roman,serif" font-size="14.00">destroy</text>
<text text-anchor="start" x="52.4386" y="-604.846" font-family="Times Roman,serif" font-size="14.00">edit</text>
<text text-anchor="start" x="52.4386" y="-586.846" font-family="Times Roman,serif" font-size="14.00">get_user</text>
<text text-anchor="start" x="52.4386" y="-568.846" font-family="Times Roman,serif" font-size="14.00">index</text>
<text text-anchor="start" x="52.4386" y="-550.846" font-family="Times Roman,serif" font-size="14.00">new</text>
<text text-anchor="start" x="52.4386" y="-532.846" font-family="Times Roman,serif" font-size="14.00">show</text>
<text text-anchor="start" x="52.4386" y="-514.846" font-family="Times Roman,serif" font-size="14.00">update</text>
<polyline fill="none" stroke="black" points="44.4386,-505.446 291.439,-505.446 "/>
<polyline fill="none" stroke="black" points="44.4386,-481.446 291.439,-481.446 "/>
<text text-anchor="start" x="52.4386" y="-464.846" font-family="Times Roman,serif" font-size="14.00">_layout</text>
</g>
<!-- BountiesController -->
<g id="node3" class="node"><title>BountiesController</title>
<polyline fill="none" stroke="black" points="759.464,-485.146 982.464,-485.146 "/>
<path fill="none" stroke="black" d="M982.464,-485.146C988.464,-485.146 994.464,-491.146 994.464,-497.146"/>
<polyline fill="none" stroke="black" points="994.464,-497.146 994.464,-701.146 "/>
<path fill="none" stroke="black" d="M994.464,-701.146C994.464,-707.146 988.464,-713.146 982.464,-713.146"/>
<polyline fill="none" stroke="black" points="982.464,-713.146 759.464,-713.146 "/>
<path fill="none" stroke="black" d="M759.464,-713.146C753.464,-713.146 747.464,-707.146 747.464,-701.146"/>
<polyline fill="none" stroke="black" points="747.464,-701.146 747.464,-497.146 "/>
<path fill="none" stroke="black" d="M747.464,-497.146C747.464,-491.146 753.464,-485.146 759.464,-485.146"/>
<text text-anchor="middle" x="870.964" y="-696.546" font-family="Times Roman,serif" font-size="14.00">BountiesController</text>
<polyline fill="none" stroke="black" points="747.464,-687.146 994.464,-687.146 "/>
<text text-anchor="start" x="755.464" y="-670.546" font-family="Times Roman,serif" font-size="14.00">_one_time_conditions_valid_268?</text>
<text text-anchor="start" x="755.464" y="-652.546" font-family="Times Roman,serif" font-size="14.00">create</text>
<text text-anchor="start" x="755.464" y="-634.546" font-family="Times Roman,serif" font-size="14.00">destroy</text>
<text text-anchor="start" x="755.464" y="-616.546" font-family="Times Roman,serif" font-size="14.00">edit</text>
<text text-anchor="start" x="755.464" y="-598.546" font-family="Times Roman,serif" font-size="14.00">index</text>
<text text-anchor="start" x="755.464" y="-580.546" font-family="Times Roman,serif" font-size="14.00">new</text>
<text text-anchor="start" x="755.464" y="-562.546" font-family="Times Roman,serif" font-size="14.00">show</text>
<text text-anchor="start" x="755.464" y="-544.546" font-family="Times Roman,serif" font-size="14.00">update</text>
<polyline fill="none" stroke="black" points="747.464,-535.146 994.464,-535.146 "/>
<polyline fill="none" stroke="black" points="747.464,-511.146 994.464,-511.146 "/>
<text text-anchor="start" x="755.464" y="-494.546" font-family="Times Roman,serif" font-size="14.00">_layout</text>
</g>
<!-- ApplicationController -->
<g id="node4" class="node"><title>ApplicationController</title>
<polyline fill="none" stroke="black" points="409.523,-536.966 632.523,-536.966 "/>
<path fill="none" stroke="black" d="M632.523,-536.966C638.523,-536.966 644.523,-542.966 644.523,-548.966"/>
<polyline fill="none" stroke="black" points="644.523,-548.966 644.523,-626.966 "/>
<path fill="none" stroke="black" d="M644.523,-626.966C644.523,-632.966 638.523,-638.966 632.523,-638.966"/>
<polyline fill="none" stroke="black" points="632.523,-638.966 409.523,-638.966 "/>
<path fill="none" stroke="black" d="M409.523,-638.966C403.523,-638.966 397.523,-632.966 397.523,-626.966"/>
<polyline fill="none" stroke="black" points="397.523,-626.966 397.523,-548.966 "/>
<path fill="none" stroke="black" d="M397.523,-548.966C397.523,-542.966 403.523,-536.966 409.523,-536.966"/>
<text text-anchor="middle" x="521.023" y="-622.366" font-family="Times Roman,serif" font-size="14.00">ApplicationController</text>
<polyline fill="none" stroke="black" points="397.523,-612.966 644.523,-612.966 "/>
<text text-anchor="start" x="405.523" y="-596.366" font-family="Times Roman,serif" font-size="14.00">_one_time_conditions_valid_156?</text>
<polyline fill="none" stroke="black" points="397.523,-586.966 644.523,-586.966 "/>
<polyline fill="none" stroke="black" points="397.523,-562.966 644.523,-562.966 "/>
<text text-anchor="start" x="405.523" y="-546.366" font-family="Times Roman,serif" font-size="14.00">_layout</text>
</g>
<!-- ApplicationController&#45;&gt;UploadsController -->
<g id="edge2" class="edge"><title>ApplicationController&#45;&gt;UploadsController</title>
<path fill="none" stroke="black" d="M397.035,-590.944C362.857,-591.765 325.789,-592.655 291.628,-593.475"/>
</g>
<!-- ApplicationController&#45;&gt;BountiesController -->
<g id="edge4" class="edge"><title>ApplicationController&#45;&gt;BountiesController</title>
<path fill="none" stroke="black" d="M644.891,-591.923C678.12,-592.985 714.043,-594.133 747.262,-595.194"/>
</g>
<!-- CommentsController -->
<g id="node5" class="node"><title>CommentsController</title>
<polyline fill="none" stroke="black" points="449.71,-844.3 584.71,-844.3 "/>
<path fill="none" stroke="black" d="M584.71,-844.3C590.71,-844.3 596.71,-850.3 596.71,-856.3"/>
<polyline fill="none" stroke="black" points="596.71,-856.3 596.71,-1042.3 "/>
<path fill="none" stroke="black" d="M596.71,-1042.3C596.71,-1048.3 590.71,-1054.3 584.71,-1054.3"/>
<polyline fill="none" stroke="black" points="584.71,-1054.3 449.71,-1054.3 "/>
<path fill="none" stroke="black" d="M449.71,-1054.3C443.71,-1054.3 437.71,-1048.3 437.71,-1042.3"/>
<polyline fill="none" stroke="black" points="437.71,-1042.3 437.71,-856.3 "/>
<path fill="none" stroke="black" d="M437.71,-856.3C437.71,-850.3 443.71,-844.3 449.71,-844.3"/>
<text text-anchor="middle" x="517.21" y="-1037.7" font-family="Times Roman,serif" font-size="14.00">CommentsController</text>
<polyline fill="none" stroke="black" points="437.71,-1028.3 596.71,-1028.3 "/>
<text text-anchor="start" x="445.71" y="-1011.7" font-family="Times Roman,serif" font-size="14.00">create</text>
<text text-anchor="start" x="445.71" y="-993.7" font-family="Times Roman,serif" font-size="14.00">destroy</text>
<text text-anchor="start" x="445.71" y="-975.7" font-family="Times Roman,serif" font-size="14.00">edit</text>
<text text-anchor="start" x="445.71" y="-957.7" font-family="Times Roman,serif" font-size="14.00">index</text>
<text text-anchor="start" x="445.71" y="-939.7" font-family="Times Roman,serif" font-size="14.00">new</text>
<text text-anchor="start" x="445.71" y="-921.7" font-family="Times Roman,serif" font-size="14.00">show</text>
<text text-anchor="start" x="445.71" y="-903.7" font-family="Times Roman,serif" font-size="14.00">update</text>
<polyline fill="none" stroke="black" points="437.71,-894.3 596.71,-894.3 "/>
<polyline fill="none" stroke="black" points="437.71,-870.3 596.71,-870.3 "/>
<text text-anchor="start" x="445.71" y="-853.7" font-family="Times Roman,serif" font-size="14.00">_layout</text>
</g>
<!-- ApplicationController&#45;&gt;CommentsController -->
<g id="edge6" class="edge"><title>ApplicationController&#45;&gt;CommentsController</title>
<path fill="none" stroke="black" d="M520.484,-638.97C519.924,-692.078 519.03,-776.78 518.318,-844.285"/>
</g>
<!-- DiscussionsController -->
<g id="node6" class="node"><title>DiscussionsController</title>
<polyline fill="none" stroke="black" points="760.482,-816.47 983.482,-816.47 "/>
<path fill="none" stroke="black" d="M983.482,-816.47C989.482,-816.47 995.482,-822.47 995.482,-828.47"/>
<polyline fill="none" stroke="black" points="995.482,-828.47 995.482,-1086.47 "/>
<path fill="none" stroke="black" d="M995.482,-1086.47C995.482,-1092.47 989.482,-1098.47 983.482,-1098.47"/>
<polyline fill="none" stroke="black" points="983.482,-1098.47 760.482,-1098.47 "/>
<path fill="none" stroke="black" d="M760.482,-1098.47C754.482,-1098.47 748.482,-1092.47 748.482,-1086.47"/>
<polyline fill="none" stroke="black" points="748.482,-1086.47 748.482,-828.47 "/>
<path fill="none" stroke="black" d="M748.482,-828.47C748.482,-822.47 754.482,-816.47 760.482,-816.47"/>
<text text-anchor="middle" x="871.982" y="-1081.87" font-family="Times Roman,serif" font-size="14.00">DiscussionsController</text>
<polyline fill="none" stroke="black" points="748.482,-1072.47 995.482,-1072.47 "/>
<text text-anchor="start" x="756.482" y="-1055.87" font-family="Times Roman,serif" font-size="14.00">_callback_before_277</text>
<text text-anchor="start" x="756.482" y="-1037.87" font-family="Times Roman,serif" font-size="14.00">_one_time_conditions_valid_278?</text>
<text text-anchor="start" x="756.482" y="-1019.87" font-family="Times Roman,serif" font-size="14.00">_one_time_conditions_valid_280?</text>
<text text-anchor="start" x="756.482" y="-1001.87" font-family="Times Roman,serif" font-size="14.00">create</text>
<text text-anchor="start" x="756.482" y="-983.87" font-family="Times Roman,serif" font-size="14.00">destroy</text>
<text text-anchor="start" x="756.482" y="-965.87" font-family="Times Roman,serif" font-size="14.00">edit</text>
<text text-anchor="start" x="756.482" y="-947.87" font-family="Times Roman,serif" font-size="14.00">get_bounty</text>
<text text-anchor="start" x="756.482" y="-929.87" font-family="Times Roman,serif" font-size="14.00">index</text>
<text text-anchor="start" x="756.482" y="-911.87" font-family="Times Roman,serif" font-size="14.00">new</text>
<text text-anchor="start" x="756.482" y="-893.87" font-family="Times Roman,serif" font-size="14.00">show</text>
<text text-anchor="start" x="756.482" y="-875.87" font-family="Times Roman,serif" font-size="14.00">update</text>
<polyline fill="none" stroke="black" points="748.482,-866.47 995.482,-866.47 "/>
<polyline fill="none" stroke="black" points="748.482,-842.47 995.482,-842.47 "/>
<text text-anchor="start" x="756.482" y="-825.87" font-family="Times Roman,serif" font-size="14.00">_layout</text>
</g>
<!-- ApplicationController&#45;&gt;DiscussionsController -->
<g id="edge8" class="edge"><title>ApplicationController&#45;&gt;DiscussionsController</title>
<path fill="none" stroke="black" d="M569.822,-639.344C615.873,-687.828 686.847,-762.553 748.439,-827.4"/>
</g>
<!-- PrelaunchesController -->
<g id="node7" class="node"><title>PrelaunchesController</title>
<polyline fill="none" stroke="black" points="90.8292,-895.994 236.829,-895.994 "/>
<path fill="none" stroke="black" d="M236.829,-895.994C242.829,-895.994 248.829,-901.994 248.829,-907.994"/>
<polyline fill="none" stroke="black" points="248.829,-907.994 248.829,-1003.99 "/>
<path fill="none" stroke="black" d="M248.829,-1003.99C248.829,-1009.99 242.829,-1015.99 236.829,-1015.99"/>
<polyline fill="none" stroke="black" points="236.829,-1015.99 90.8292,-1015.99 "/>
<path fill="none" stroke="black" d="M90.8292,-1015.99C84.8292,-1015.99 78.8292,-1009.99 78.8292,-1003.99"/>
<polyline fill="none" stroke="black" points="78.8292,-1003.99 78.8292,-907.994 "/>
<path fill="none" stroke="black" d="M78.8292,-907.994C78.8292,-901.994 84.8292,-895.994 90.8292,-895.994"/>
<text text-anchor="middle" x="163.829" y="-999.394" font-family="Times Roman,serif" font-size="14.00">PrelaunchesController</text>
<polyline fill="none" stroke="black" points="78.8292,-989.994 248.829,-989.994 "/>
<text text-anchor="start" x="86.8292" y="-973.394" font-family="Times Roman,serif" font-size="14.00">create</text>
<text text-anchor="start" x="86.8292" y="-955.394" font-family="Times Roman,serif" font-size="14.00">index</text>
<polyline fill="none" stroke="black" points="78.8292,-945.994 248.829,-945.994 "/>
<polyline fill="none" stroke="black" points="78.8292,-921.994 248.829,-921.994 "/>
<text text-anchor="start" x="86.8292" y="-905.394" font-family="Times Roman,serif" font-size="14.00">_layout</text>
</g>
<!-- ApplicationController&#45;&gt;PrelaunchesController -->
<g id="edge10" class="edge"><title>ApplicationController&#45;&gt;PrelaunchesController</title>
<path fill="none" stroke="black" d="M471.356,-639.139C406.085,-706.39 291.617,-824.33 222.256,-895.795"/>
</g>
<!-- SubmissionsController -->
<g id="node8" class="node"><title>SubmissionsController</title>
<polyline fill="none" stroke="black" points="287.958,-84.5857 510.958,-84.5857 "/>
<path fill="none" stroke="black" d="M510.958,-84.5857C516.958,-84.5857 522.958,-90.5857 522.958,-96.5857"/>
<polyline fill="none" stroke="black" points="522.958,-96.5857 522.958,-354.586 "/>
<path fill="none" stroke="black" d="M522.958,-354.586C522.958,-360.586 516.958,-366.586 510.958,-366.586"/>
<polyline fill="none" stroke="black" points="510.958,-366.586 287.958,-366.586 "/>
<path fill="none" stroke="black" d="M287.958,-366.586C281.958,-366.586 275.958,-360.586 275.958,-354.586"/>
<polyline fill="none" stroke="black" points="275.958,-354.586 275.958,-96.5857 "/>
<path fill="none" stroke="black" d="M275.958,-96.5857C275.958,-90.5857 281.958,-84.5857 287.958,-84.5857"/>
<text text-anchor="middle" x="399.458" y="-349.986" font-family="Times Roman,serif" font-size="14.00">SubmissionsController</text>
<polyline fill="none" stroke="black" points="275.958,-340.586 522.958,-340.586 "/>
<text text-anchor="start" x="283.958" y="-323.986" font-family="Times Roman,serif" font-size="14.00">_callback_before_307</text>
<text text-anchor="start" x="283.958" y="-305.986" font-family="Times Roman,serif" font-size="14.00">_one_time_conditions_valid_308?</text>
<text text-anchor="start" x="283.958" y="-287.986" font-family="Times Roman,serif" font-size="14.00">_one_time_conditions_valid_310?</text>
<text text-anchor="start" x="283.958" y="-269.986" font-family="Times Roman,serif" font-size="14.00">create</text>
<text text-anchor="start" x="283.958" y="-251.986" font-family="Times Roman,serif" font-size="14.00">destroy</text>
<text text-anchor="start" x="283.958" y="-233.986" font-family="Times Roman,serif" font-size="14.00">edit</text>
<text text-anchor="start" x="283.958" y="-215.986" font-family="Times Roman,serif" font-size="14.00">get_bounty</text>
<text text-anchor="start" x="283.958" y="-197.986" font-family="Times Roman,serif" font-size="14.00">index</text>
<text text-anchor="start" x="283.958" y="-179.986" font-family="Times Roman,serif" font-size="14.00">new</text>
<text text-anchor="start" x="283.958" y="-161.986" font-family="Times Roman,serif" font-size="14.00">show</text>
<text text-anchor="start" x="283.958" y="-143.986" font-family="Times Roman,serif" font-size="14.00">update</text>
<polyline fill="none" stroke="black" points="275.958,-134.586 522.958,-134.586 "/>
<polyline fill="none" stroke="black" points="275.958,-110.586 522.958,-110.586 "/>
<text text-anchor="start" x="283.958" y="-93.9857" font-family="Times Roman,serif" font-size="14.00">_layout</text>
</g>
<!-- ApplicationController&#45;&gt;SubmissionsController -->
<g id="edge12" class="edge"><title>ApplicationController&#45;&gt;SubmissionsController</title>
<path fill="none" stroke="black" d="M503.863,-536.814C489.039,-492.625 466.899,-426.624 446.816,-366.758"/>
</g>
<!-- UsersController -->
<g id="node9" class="node"><title>UsersController</title>
<polyline fill="none" stroke="black" points="803.458,-139.38 1026.46,-139.38 "/>
<path fill="none" stroke="black" d="M1026.46,-139.38C1032.46,-139.38 1038.46,-145.38 1038.46,-151.38"/>
<polyline fill="none" stroke="black" points="1038.46,-151.38 1038.46,-301.38 "/>
<path fill="none" stroke="black" d="M1038.46,-301.38C1038.46,-307.38 1032.46,-313.38 1026.46,-313.38"/>
<polyline fill="none" stroke="black" points="1026.46,-313.38 803.458,-313.38 "/>
<path fill="none" stroke="black" d="M803.458,-313.38C797.458,-313.38 791.458,-307.38 791.458,-301.38"/>
<polyline fill="none" stroke="black" points="791.458,-301.38 791.458,-151.38 "/>
<path fill="none" stroke="black" d="M791.458,-151.38C791.458,-145.38 797.458,-139.38 803.458,-139.38"/>
<text text-anchor="middle" x="914.958" y="-296.78" font-family="Times Roman,serif" font-size="14.00">UsersController</text>
<polyline fill="none" stroke="black" points="791.458,-287.38 1038.46,-287.38 "/>
<text text-anchor="start" x="799.458" y="-270.78" font-family="Times Roman,serif" font-size="14.00">_one_time_conditions_valid_312?</text>
<text text-anchor="start" x="799.458" y="-252.78" font-family="Times Roman,serif" font-size="14.00">destroy</text>
<text text-anchor="start" x="799.458" y="-234.78" font-family="Times Roman,serif" font-size="14.00">index</text>
<text text-anchor="start" x="799.458" y="-216.78" font-family="Times Roman,serif" font-size="14.00">show</text>
<text text-anchor="start" x="799.458" y="-198.78" font-family="Times Roman,serif" font-size="14.00">update</text>
<polyline fill="none" stroke="black" points="791.458,-189.38 1038.46,-189.38 "/>
<polyline fill="none" stroke="black" points="791.458,-165.38 1038.46,-165.38 "/>
<text text-anchor="start" x="799.458" y="-148.78" font-family="Times Roman,serif" font-size="14.00">_layout</text>
</g>
<!-- ApplicationController&#45;&gt;UsersController -->
<g id="edge14" class="edge"><title>ApplicationController&#45;&gt;UsersController</title>
<path fill="none" stroke="black" d="M576.628,-536.927C639.83,-478.915 744.074,-383.231 820.174,-313.381"/>
</g>
<!-- DiscussionCommentsController -->
<g id="node10" class="node"><title>DiscussionCommentsController</title>
<polyline fill="none" stroke="black" points="13,-82.5 236,-82.5 "/>
<path fill="none" stroke="black" d="M236,-82.5C242,-82.5 248,-88.5 248,-94.5"/>
<polyline fill="none" stroke="black" points="248,-94.5 248,-352.5 "/>
<path fill="none" stroke="black" d="M248,-352.5C248,-358.5 242,-364.5 236,-364.5"/>
<polyline fill="none" stroke="black" points="236,-364.5 13,-364.5 "/>
<path fill="none" stroke="black" d="M13,-364.5C7,-364.5 1,-358.5 1,-352.5"/>
<polyline fill="none" stroke="black" points="1,-352.5 1,-94.5 "/>
<path fill="none" stroke="black" d="M1,-94.5C1,-88.5 7,-82.5 13,-82.5"/>
<text text-anchor="middle" x="124.5" y="-347.9" font-family="Times Roman,serif" font-size="14.00">DiscussionCommentsController</text>
<polyline fill="none" stroke="black" points="1,-338.5 248,-338.5 "/>
<text text-anchor="start" x="9" y="-321.9" font-family="Times Roman,serif" font-size="14.00">_callback_before_317</text>
<text text-anchor="start" x="9" y="-303.9" font-family="Times Roman,serif" font-size="14.00">_one_time_conditions_valid_318?</text>
<text text-anchor="start" x="9" y="-285.9" font-family="Times Roman,serif" font-size="14.00">_one_time_conditions_valid_320?</text>
<text text-anchor="start" x="9" y="-267.9" font-family="Times Roman,serif" font-size="14.00">create</text>
<text text-anchor="start" x="9" y="-249.9" font-family="Times Roman,serif" font-size="14.00">destroy</text>
<text text-anchor="start" x="9" y="-231.9" font-family="Times Roman,serif" font-size="14.00">edit</text>
<text text-anchor="start" x="9" y="-213.9" font-family="Times Roman,serif" font-size="14.00">get_bounty</text>
<text text-anchor="start" x="9" y="-195.9" font-family="Times Roman,serif" font-size="14.00">index</text>
<text text-anchor="start" x="9" y="-177.9" font-family="Times Roman,serif" font-size="14.00">new</text>
<text text-anchor="start" x="9" y="-159.9" font-family="Times Roman,serif" font-size="14.00">show</text>
<text text-anchor="start" x="9" y="-141.9" font-family="Times Roman,serif" font-size="14.00">update</text>
<polyline fill="none" stroke="black" points="1,-132.5 248,-132.5 "/>
<polyline fill="none" stroke="black" points="1,-108.5 248,-108.5 "/>
<text text-anchor="start" x="9" y="-91.9" font-family="Times Roman,serif" font-size="14.00">_layout</text>
</g>
<!-- ApplicationController&#45;&gt;DiscussionCommentsController -->
<g id="edge16" class="edge"><title>ApplicationController&#45;&gt;DiscussionCommentsController</title>
<path fill="none" stroke="black" d="M460.974,-536.895C410.153,-493.269 335.744,-428.445 272.758,-369.786 264.687,-362.269 256.435,-354.468 248.159,-346.555"/>
</g>
<!-- HomeController -->
<g id="node11" class="node"><title>HomeController</title>
<polyline fill="none" stroke="black" points="590.726,-169.768 691.726,-169.768 "/>
<path fill="none" stroke="black" d="M691.726,-169.768C697.726,-169.768 703.726,-175.768 703.726,-181.768"/>
<polyline fill="none" stroke="black" points="703.726,-181.768 703.726,-259.768 "/>
<path fill="none" stroke="black" d="M703.726,-259.768C703.726,-265.768 697.726,-271.768 691.726,-271.768"/>
<polyline fill="none" stroke="black" points="691.726,-271.768 590.726,-271.768 "/>
<path fill="none" stroke="black" d="M590.726,-271.768C584.726,-271.768 578.726,-265.768 578.726,-259.768"/>
<polyline fill="none" stroke="black" points="578.726,-259.768 578.726,-181.768 "/>
<path fill="none" stroke="black" d="M578.726,-181.768C578.726,-175.768 584.726,-169.768 590.726,-169.768"/>
<text text-anchor="middle" x="641.226" y="-255.168" font-family="Times Roman,serif" font-size="14.00">HomeController</text>
<polyline fill="none" stroke="black" points="578.726,-245.768 703.726,-245.768 "/>
<text text-anchor="start" x="586.726" y="-229.168" font-family="Times Roman,serif" font-size="14.00">invite</text>
<polyline fill="none" stroke="black" points="578.726,-219.768 703.726,-219.768 "/>
<polyline fill="none" stroke="black" points="578.726,-195.768 703.726,-195.768 "/>
<text text-anchor="start" x="586.726" y="-179.168" font-family="Times Roman,serif" font-size="14.00">_layout</text>
</g>
<!-- ApplicationController&#45;&gt;HomeController -->
<g id="edge18" class="edge"><title>ApplicationController&#45;&gt;HomeController</title>
<path fill="none" stroke="black" d="M537.736,-536.909C560.637,-466.952 601.533,-342.022 624.461,-271.982"/>
</g>
</g>
</svg>
