<?xml version="1.0" encoding="UTF-8" standalone="no"?>
<!DOCTYPE svg PUBLIC "-//W3C//DTD SVG 1.1//EN"
 "http://www.w3.org/Graphics/SVG/1.1/DTD/svg11.dtd">
<!-- Generated by graphviz version 2.26.3 (20100126.1600)
 -->
<!-- Title: controllers_diagram Pages: 1 -->
<svg width="656pt" height="365pt"
 viewBox="0.00 0.00 656.00 364.52" xmlns="http://www.w3.org/2000/svg" xmlns:xlink="http://www.w3.org/1999/xlink">
<g id="graph1" class="graph" transform="scale(1 1) rotate(0) translate(4 360.521)">
<title>controllers_diagram</title>
<polygon fill="white" stroke="white" points="-4,5 -4,-360.521 653,-360.521 653,5 -4,5"/>
<!-- _diagram_info -->
<g id="node1" class="node"><title>_diagram_info</title>
<text text-anchor="start" x="405" y="-114.3" font-family="Times Roman,serif" font-size="13.00">Controllers diagram</text>
<text text-anchor="start" x="405" y="-97.3" font-family="Times Roman,serif" font-size="13.00">Date: Jan 16 2013 &#45; 12:39</text>
<text text-anchor="start" x="405" y="-80.3" font-family="Times Roman,serif" font-size="13.00">Migration version: 20130116164457</text>
<text text-anchor="start" x="405" y="-63.3" font-family="Times Roman,serif" font-size="13.00">Generated by RailRoady 1.1.0</text>
<text text-anchor="start" x="405" y="-46.3" font-family="Times Roman,serif" font-size="13.00">http://railroady.prestonlee.com</text>
</g>
<!-- ApplicationController -->
<g id="node2" class="node"><title>ApplicationController</title>
<polyline fill="none" stroke="black" points="13,-206.335 227,-206.335 "/>
<path fill="none" stroke="black" d="M227,-206.335C233,-206.335 239,-212.335 239,-218.335"/>
<polyline fill="none" stroke="black" points="239,-218.335 239,-296.335 "/>
<path fill="none" stroke="black" d="M239,-296.335C239,-302.335 233,-308.335 227,-308.335"/>
<polyline fill="none" stroke="black" points="227,-308.335 13,-308.335 "/>
<path fill="none" stroke="black" d="M13,-308.335C7,-308.335 1,-302.335 1,-296.335"/>
<polyline fill="none" stroke="black" points="1,-296.335 1,-218.335 "/>
<path fill="none" stroke="black" d="M1,-218.335C1,-212.335 7,-206.335 13,-206.335"/>
<text text-anchor="middle" x="120" y="-291.735" font-family="Times Roman,serif" font-size="14.00">ApplicationController</text>
<polyline fill="none" stroke="black" points="1,-282.335 239,-282.335 "/>
<text text-anchor="start" x="9" y="-265.735" font-family="Times Roman,serif" font-size="14.00">_one_time_conditions_valid_48?</text>
<polyline fill="none" stroke="black" points="1,-256.335 239,-256.335 "/>
<polyline fill="none" stroke="black" points="1,-232.335 239,-232.335 "/>
<text text-anchor="start" x="9" y="-215.735" font-family="Times Roman,serif" font-size="14.00">_layout</text>
</g>
<!-- UsersController -->
<g id="node3" class="node"><title>UsersController</title>
<polyline fill="none" stroke="black" points="265.657,-181.021 479.657,-181.021 "/>
<path fill="none" stroke="black" d="M479.657,-181.021C485.657,-181.021 491.657,-187.021 491.657,-193.021"/>
<polyline fill="none" stroke="black" points="491.657,-193.021 491.657,-343.021 "/>
<path fill="none" stroke="black" d="M491.657,-343.021C491.657,-349.021 485.657,-355.021 479.657,-355.021"/>
<polyline fill="none" stroke="black" points="479.657,-355.021 265.657,-355.021 "/>
<path fill="none" stroke="black" d="M265.657,-355.021C259.657,-355.021 253.657,-349.021 253.657,-343.021"/>
<polyline fill="none" stroke="black" points="253.657,-343.021 253.657,-193.021 "/>
<path fill="none" stroke="black" d="M253.657,-193.021C253.657,-187.021 259.657,-181.021 265.657,-181.021"/>
<text text-anchor="middle" x="372.657" y="-338.421" font-family="Times Roman,serif" font-size="14.00">UsersController</text>
<polyline fill="none" stroke="black" points="253.657,-329.021 491.657,-329.021 "/>
<text text-anchor="start" x="261.657" y="-312.421" font-family="Times Roman,serif" font-size="14.00">_one_time_conditions_valid_50?</text>
<text text-anchor="start" x="261.657" y="-294.421" font-family="Times Roman,serif" font-size="14.00">destroy</text>
<text text-anchor="start" x="261.657" y="-276.421" font-family="Times Roman,serif" font-size="14.00">index</text>
<text text-anchor="start" x="261.657" y="-258.421" font-family="Times Roman,serif" font-size="14.00">show</text>
<text text-anchor="start" x="261.657" y="-240.421" font-family="Times Roman,serif" font-size="14.00">update</text>
<polyline fill="none" stroke="black" points="253.657,-231.021 491.657,-231.021 "/>
<polyline fill="none" stroke="black" points="253.657,-207.021 491.657,-207.021 "/>
<text text-anchor="start" x="261.657" y="-190.421" font-family="Times Roman,serif" font-size="14.00">_layout</text>
</g>
<!-- ApplicationController&#45;&gt;UsersController -->
<g id="edge2" class="edge"><title>ApplicationController&#45;&gt;UsersController</title>
<path fill="none" stroke="black" d="M239.3,-262.381C244.027,-262.581 248.768,-262.781 253.495,-262.981"/>
</g>
<!-- HomeController -->
<g id="node4" class="node"><title>HomeController</title>
<polyline fill="none" stroke="black" points="205.885,-1.5 306.885,-1.5 "/>
<path fill="none" stroke="black" d="M306.885,-1.5C312.885,-1.5 318.885,-7.5 318.885,-13.5"/>
<polyline fill="none" stroke="black" points="318.885,-13.5 318.885,-91.5 "/>
<path fill="none" stroke="black" d="M318.885,-91.5C318.885,-97.5 312.885,-103.5 306.885,-103.5"/>
<polyline fill="none" stroke="black" points="306.885,-103.5 205.885,-103.5 "/>
<path fill="none" stroke="black" d="M205.885,-103.5C199.885,-103.5 193.885,-97.5 193.885,-91.5"/>
<polyline fill="none" stroke="black" points="193.885,-91.5 193.885,-13.5 "/>
<path fill="none" stroke="black" d="M193.885,-13.5C193.885,-7.5 199.885,-1.5 205.885,-1.5"/>
<text text-anchor="middle" x="256.385" y="-86.9" font-family="Times Roman,serif" font-size="14.00">HomeController</text>
<polyline fill="none" stroke="black" points="193.885,-77.5 318.885,-77.5 "/>
<text text-anchor="start" x="201.885" y="-60.9" font-family="Times Roman,serif" font-size="14.00">index</text>
<polyline fill="none" stroke="black" points="193.885,-51.5 318.885,-51.5 "/>
<polyline fill="none" stroke="black" points="193.885,-27.5 318.885,-27.5 "/>
<text text-anchor="start" x="201.885" y="-10.9" font-family="Times Roman,serif" font-size="14.00">_layout</text>
</g>
<!-- ApplicationController&#45;&gt;HomeController -->
<g id="edge4" class="edge"><title>ApplicationController&#45;&gt;HomeController</title>
<path fill="none" stroke="black" d="M154.064,-206.175C174.893,-174.891 201.446,-135.012 222.282,-103.718"/>
</g>
</g>
</svg>
