<?xml version="1.0" encoding="UTF-8" standalone="no"?>
<!DOCTYPE svg PUBLIC "-//W3C//DTD SVG 1.1//EN"
 "http://www.w3.org/Graphics/SVG/1.1/DTD/svg11.dtd">
<!-- Generated by graphviz version 2.26.3 (20100126.1600)
 -->
<!-- Title: models_diagram Pages: 1 -->
<svg width="418pt" height="398pt"
 viewBox="0.00 0.00 418.00 398.00" xmlns="http://www.w3.org/2000/svg" xmlns:xlink="http://www.w3.org/1999/xlink">
<g id="graph1" class="graph" transform="scale(1 1) rotate(0) translate(4 394)">
<title>models_diagram</title>
<polygon fill="white" stroke="white" points="-4,5 -4,-394 415,-394 415,5 -4,5"/>
<!-- _diagram_info -->
<g id="node1" class="node"><title>_diagram_info</title>
<text text-anchor="start" x="8" y="-373.8" font-family="Times Roman,serif" font-size="13.00">Models diagram</text>
<text text-anchor="start" x="8" y="-356.8" font-family="Times Roman,serif" font-size="13.00">Date: Jan 16 2013 &#45; 13:18</text>
<text text-anchor="start" x="8" y="-339.8" font-family="Times Roman,serif" font-size="13.00">Migration version: 20130116180741</text>
<text text-anchor="start" x="8" y="-322.8" font-family="Times Roman,serif" font-size="13.00">Generated by RailRoady 1.1.0</text>
<text text-anchor="start" x="8" y="-305.8" font-family="Times Roman,serif" font-size="13.00">http://railroady.prestonlee.com</text>
</g>
<!-- Bounty -->
<g id="node2" class="node"><title>Bounty</title>
<ellipse fill="none" stroke="black" cx="300" cy="-167" rx="46.8775" ry="18.3848"/>
<text text-anchor="middle" x="300" y="-163.4" font-family="Times Roman,serif" font-size="14.00">Bounty</text>
</g>
<!-- Upload -->
<g id="node5" class="node"><title>Upload</title>
<ellipse fill="none" stroke="black" cx="245" cy="-93" rx="44.7575" ry="18.3848"/>
<text text-anchor="middle" x="245" y="-89.4" font-family="Times Roman,serif" font-size="14.00">Upload</text>
</g>
<!-- Bounty&#45;&gt;Upload -->
<g id="edge4" class="edge"><title>Bounty&#45;&gt;Upload</title>
<path fill="none" stroke="#4ac6e7" d="M280.695,-141.027C275.346,-133.829 269.541,-126.018 264.197,-118.829"/>
<polygon fill="#4ac6e7" stroke="#4ac6e7" points="280.721,-141.061 283.074,-151.771 283.703,-145.074 286.686,-149.087 286.686,-149.087 286.686,-149.087 283.703,-145.074 290.298,-146.402 280.721,-141.061 280.721,-141.061"/>
<polygon fill="#4ac6e7" stroke="#4ac6e7" points="264.157,-118.774 261.803,-108.064 261.174,-114.761 258.191,-110.748 258.191,-110.748 258.191,-110.748 261.174,-114.761 254.58,-113.433 264.157,-118.774 264.157,-118.774"/>
</g>
<!-- Submission -->
<g id="node6" class="node"><title>Submission</title>
<ellipse fill="none" stroke="black" cx="318" cy="-19" rx="65.9683" ry="18.3848"/>
<text text-anchor="middle" x="318" y="-15.4" font-family="Times Roman,serif" font-size="14.00">Submission</text>
</g>
<!-- Bounty&#45;&gt;Submission -->
<g id="edge2" class="edge"><title>Bounty&#45;&gt;Submission</title>
<path fill="none" stroke="#d33de8" d="M303.283,-140.006C306.456,-113.917 311.247,-74.5269 314.493,-47.8341"/>
<ellipse fill="none" stroke="#d33de8" cx="302.763" cy="-144.285" rx="4.00001" ry="4.00001"/>
<polygon fill="#d33de8" stroke="#d33de8" points="314.531,-47.519 320.206,-38.1354 315.135,-42.5555 315.739,-37.5921 315.739,-37.5921 315.739,-37.5921 315.135,-42.5555 311.272,-37.0488 314.531,-47.519 314.531,-47.519"/>
</g>
<!-- Role -->
<g id="node3" class="node"><title>Role</title>
<ellipse fill="none" stroke="black" cx="300" cy="-343" rx="32.0265" ry="18.3848"/>
<text text-anchor="middle" x="300" y="-339.4" font-family="Times Roman,serif" font-size="14.00">Role</text>
</g>
<!-- User -->
<g id="node7" class="node"><title>User</title>
<ellipse fill="none" stroke="black" cx="300" cy="-241" rx="33.9411" ry="18.3848"/>
<text text-anchor="middle" x="300" y="-237.4" font-family="Times Roman,serif" font-size="14.00">User</text>
</g>
<!-- Role&#45;&gt;User -->
<g id="edge6" class="edge"><title>Role&#45;&gt;User</title>
<path fill="none" stroke="#1803b7" d="M300,-314.054C300,-300.256 300,-283.791 300,-269.987"/>
<polygon fill="#1803b7" stroke="#1803b7" points="300,-314.292 295.5,-324.292 300,-319.292 300,-324.292 300,-324.292 300,-324.292 300,-319.292 304.5,-324.292 300,-314.292 300,-314.292"/>
<polygon fill="#1803b7" stroke="#1803b7" points="300,-269.59 304.5,-259.59 300,-264.59 300,-259.59 300,-259.59 300,-259.59 300,-264.59 295.5,-259.59 300,-269.59 300,-269.59"/>
</g>
<!-- Ability -->
<g id="node4" class="node"><title>Ability</title>
<polygon fill="none" stroke="black" points="410,-361 350,-361 350,-325 410,-325 410,-361"/>
<text text-anchor="middle" x="380" y="-339.4" font-family="Times Roman,serif" font-size="14.00">Ability</text>
</g>
<!-- Upload&#45;&gt;Submission -->
<g id="edge8" class="edge"><title>Upload&#45;&gt;Submission</title>
<path fill="none" stroke="#1ab673" d="M267.584,-70.1061C275.756,-61.8231 285.021,-52.4308 293.36,-43.9777"/>
<ellipse fill="none" stroke="#1ab673" cx="264.74" cy="-72.9893" rx="4.00002" ry="4.00002"/>
<polygon fill="#1ab673" stroke="#1ab673" points="293.376,-43.9616 303.602,-40.0029 296.887,-40.4021 300.399,-36.8426 300.399,-36.8426 300.399,-36.8426 296.887,-40.4021 297.195,-33.6823 293.376,-43.9616 293.376,-43.9616"/>
</g>
<!-- User&#45;&gt;Bounty -->
<g id="edge10" class="edge"><title>User&#45;&gt;Bounty</title>
<path fill="none" stroke="#5beb74" d="M300,-214.309C300,-208.377 300,-202.061 300,-196.04"/>
<ellipse fill="none" stroke="#5beb74" cx="300" cy="-218.327" rx="4" ry="4"/>
<polygon fill="#5beb74" stroke="#5beb74" points="300,-195.667 304.5,-185.667 300,-190.667 300,-185.667 300,-185.667 300,-185.667 300,-190.667 295.5,-185.667 300,-195.667 300,-195.667"/>
</g>
<!-- User&#45;&gt;Upload -->
<g id="edge12" class="edge"><title>User&#45;&gt;Upload</title>
<path fill="none" stroke="#00135e" d="M271.892,-221.312C261.023,-211.997 249.817,-199.866 244,-186 235.502,-165.742 236.319,-140.748 238.95,-121.775"/>
<ellipse fill="none" stroke="#00135e" cx="275.11" cy="-223.936" rx="4.00002" ry="4.00002"/>
<polygon fill="#00135e" stroke="#00135e" points="238.992,-121.521 245.043,-112.376 239.797,-116.587 240.602,-111.652 240.602,-111.652 240.602,-111.652 239.797,-116.587 236.16,-110.927 238.992,-121.521 238.992,-121.521"/>
</g>
<!-- User&#45;&gt;Submission -->
<g id="edge14" class="edge"><title>User&#45;&gt;Submission</title>
<path fill="none" stroke="#d68d52" d="M328.108,-221.312C338.977,-211.997 350.183,-199.866 356,-186 375.714,-139.007 352,-80.0859 334.17,-46.2702"/>
<ellipse fill="none" stroke="#d68d52" cx="324.89" cy="-223.936" rx="4.00002" ry="4.00002"/>
<polygon fill="#d68d52" stroke="#d68d52" points="334.134,-46.2041 333.287,-35.271 331.736,-41.8166 329.339,-37.429 329.339,-37.429 329.339,-37.429 331.736,-41.8166 325.39,-39.5871 334.134,-46.2041 334.134,-46.2041"/>
</g>
</g>
</svg>
