<?xml version="1.0" encoding="UTF-8" standalone="no"?>
<!DOCTYPE svg PUBLIC "-//W3C//DTD SVG 1.1//EN"
 "http://www.w3.org/Graphics/SVG/1.1/DTD/svg11.dtd">
<!-- Generated by graphviz version 2.26.3 (20100126.1600)
 -->
<!-- Title: models_diagram Pages: 1 -->
<svg width="518pt" height="1034pt"
 viewBox="0.00 0.00 518.00 1034.00" xmlns="http://www.w3.org/2000/svg" xmlns:xlink="http://www.w3.org/1999/xlink">
<g id="graph1" class="graph" transform="scale(1 1) rotate(0) translate(4 1030)">
<title>models_diagram</title>
<polygon fill="white" stroke="white" points="-4,5 -4,-1030 515,-1030 515,5 -4,5"/>
<!-- _diagram_info -->
<g id="node1" class="node"><title>_diagram_info</title>
<text text-anchor="start" x="8" y="-984.8" font-family="Times Roman,serif" font-size="13.00">Models diagram</text>
<text text-anchor="start" x="8" y="-967.8" font-family="Times Roman,serif" font-size="13.00">Date: Jan 16 2013 &#45; 13:18</text>
<text text-anchor="start" x="8" y="-950.8" font-family="Times Roman,serif" font-size="13.00">Migration version: 20130116180741</text>
<text text-anchor="start" x="8" y="-933.8" font-family="Times Roman,serif" font-size="13.00">Generated by RailRoady 1.1.0</text>
<text text-anchor="start" x="8" y="-916.8" font-family="Times Roman,serif" font-size="13.00">http://railroady.prestonlee.com</text>
</g>
<!-- Bounty -->
<g id="node2" class="node"><title>Bounty</title>
<polyline fill="none" stroke="black" points="279.5,-361 420.5,-361 "/>
<path fill="none" stroke="black" d="M420.5,-361C426.5,-361 432.5,-367 432.5,-373"/>
<polyline fill="none" stroke="black" points="432.5,-373 432.5,-509 "/>
<path fill="none" stroke="black" d="M432.5,-509C432.5,-515 426.5,-521 420.5,-521"/>
<polyline fill="none" stroke="black" points="420.5,-521 279.5,-521 "/>
<path fill="none" stroke="black" d="M279.5,-521C273.5,-521 267.5,-515 267.5,-509"/>
<polyline fill="none" stroke="black" points="267.5,-509 267.5,-373 "/>
<path fill="none" stroke="black" d="M267.5,-373C267.5,-367 273.5,-361 279.5,-361"/>
<text text-anchor="middle" x="350" y="-504.4" font-family="Times Roman,serif" font-size="14.00">Bounty</text>
<polyline fill="none" stroke="black" points="267.5,-495 432.5,-495 "/>
<text text-anchor="start" x="275.5" y="-478.4" font-family="Times Roman,serif" font-size="14.00">id :integer</text>
<text text-anchor="start" x="275.5" y="-460.4" font-family="Times Roman,serif" font-size="14.00">user_id :integer</text>
<text text-anchor="start" x="275.5" y="-442.4" font-family="Times Roman,serif" font-size="14.00">title :string</text>
<text text-anchor="start" x="275.5" y="-424.4" font-family="Times Roman,serif" font-size="14.00">body :text</text>
<text text-anchor="start" x="275.5" y="-406.4" font-family="Times Roman,serif" font-size="14.00">bounty :integer</text>
<text text-anchor="start" x="275.5" y="-388.4" font-family="Times Roman,serif" font-size="14.00">created_at :datetime</text>
<text text-anchor="start" x="275.5" y="-370.4" font-family="Times Roman,serif" font-size="14.00">updated_at :datetime</text>
</g>
<!-- Upload -->
<g id="node5" class="node"><title>Upload</title>
<polyline fill="none" stroke="black" points="205.5,-181 346.5,-181 "/>
<path fill="none" stroke="black" d="M346.5,-181C352.5,-181 358.5,-187 358.5,-193"/>
<polyline fill="none" stroke="black" points="358.5,-193 358.5,-311 "/>
<path fill="none" stroke="black" d="M358.5,-311C358.5,-317 352.5,-323 346.5,-323"/>
<polyline fill="none" stroke="black" points="346.5,-323 205.5,-323 "/>
<path fill="none" stroke="black" d="M205.5,-323C199.5,-323 193.5,-317 193.5,-311"/>
<polyline fill="none" stroke="black" points="193.5,-311 193.5,-193 "/>
<path fill="none" stroke="black" d="M193.5,-193C193.5,-187 199.5,-181 205.5,-181"/>
<text text-anchor="middle" x="276" y="-306.4" font-family="Times Roman,serif" font-size="14.00">Upload</text>
<polyline fill="none" stroke="black" points="193.5,-297 358.5,-297 "/>
<text text-anchor="start" x="201.5" y="-280.4" font-family="Times Roman,serif" font-size="14.00">id :integer</text>
<text text-anchor="start" x="201.5" y="-262.4" font-family="Times Roman,serif" font-size="14.00">title :string</text>
<text text-anchor="start" x="201.5" y="-244.4" font-family="Times Roman,serif" font-size="14.00">upload :string</text>
<text text-anchor="start" x="201.5" y="-226.4" font-family="Times Roman,serif" font-size="14.00">created_at :datetime</text>
<text text-anchor="start" x="201.5" y="-208.4" font-family="Times Roman,serif" font-size="14.00">updated_at :datetime</text>
<text text-anchor="start" x="201.5" y="-190.4" font-family="Times Roman,serif" font-size="14.00">user_id :integer</text>
</g>
<!-- Bounty&#45;&gt;Upload -->
<g id="edge4" class="edge"><title>Bounty&#45;&gt;Upload</title>
<path fill="none" stroke="#7cd50e" d="M314.934,-351.44C312.508,-345.244 310.071,-339.018 307.664,-332.872"/>
<polygon fill="#7cd50e" stroke="#7cd50e" points="314.971,-351.535 314.427,-362.488 316.794,-356.191 318.617,-360.847 318.617,-360.847 318.617,-360.847 316.794,-356.191 322.808,-359.206 314.971,-351.535 314.971,-351.535"/>
<polygon fill="#7cd50e" stroke="#7cd50e" points="307.56,-332.605 308.104,-321.652 305.737,-327.949 303.914,-323.293 303.914,-323.293 303.914,-323.293 305.737,-327.949 299.723,-324.934 307.56,-332.605 307.56,-332.605"/>
</g>
<!-- Submission -->
<g id="node6" class="node"><title>Submission</title>
<polyline fill="none" stroke="black" points="315.5,-1 456.5,-1 "/>
<path fill="none" stroke="black" d="M456.5,-1C462.5,-1 468.5,-7 468.5,-13"/>
<polyline fill="none" stroke="black" points="468.5,-13 468.5,-131 "/>
<path fill="none" stroke="black" d="M468.5,-131C468.5,-137 462.5,-143 456.5,-143"/>
<polyline fill="none" stroke="black" points="456.5,-143 315.5,-143 "/>
<path fill="none" stroke="black" d="M315.5,-143C309.5,-143 303.5,-137 303.5,-131"/>
<polyline fill="none" stroke="black" points="303.5,-131 303.5,-13 "/>
<path fill="none" stroke="black" d="M303.5,-13C303.5,-7 309.5,-1 315.5,-1"/>
<text text-anchor="middle" x="386" y="-126.4" font-family="Times Roman,serif" font-size="14.00">Submission</text>
<polyline fill="none" stroke="black" points="303.5,-117 468.5,-117 "/>
<text text-anchor="start" x="311.5" y="-100.4" font-family="Times Roman,serif" font-size="14.00">id :integer</text>
<text text-anchor="start" x="311.5" y="-82.4" font-family="Times Roman,serif" font-size="14.00">upload_id :integer</text>
<text text-anchor="start" x="311.5" y="-64.4" font-family="Times Roman,serif" font-size="14.00">bounty_id :integer</text>
<text text-anchor="start" x="311.5" y="-46.4" font-family="Times Roman,serif" font-size="14.00">created_at :datetime</text>
<text text-anchor="start" x="311.5" y="-28.4" font-family="Times Roman,serif" font-size="14.00">updated_at :datetime</text>
<text text-anchor="start" x="311.5" y="-10.4" font-family="Times Roman,serif" font-size="14.00">user_id :integer</text>
</g>
<!-- Bounty&#45;&gt;Submission -->
<g id="edge2" class="edge"><title>Bounty&#45;&gt;Submission</title>
<path fill="none" stroke="#28623a" d="M363.487,-352.733C364.77,-343.049 365.972,-333.324 367,-324 373.273,-267.085 378.088,-202.707 381.301,-153.267"/>
<ellipse fill="none" stroke="#28623a" cx="362.928" cy="-356.884" rx="4.00001" ry="4.00001"/>
<polygon fill="#28623a" stroke="#28623a" points="381.302,-153.248 386.433,-143.557 381.623,-148.258 381.943,-143.268 381.943,-143.268 381.943,-143.268 381.623,-148.258 377.452,-142.98 381.302,-153.248 381.302,-153.248"/>
</g>
<!-- Role -->
<g id="node3" class="node"><title>Role</title>
<polyline fill="none" stroke="black" points="279.5,-883 420.5,-883 "/>
<path fill="none" stroke="black" d="M420.5,-883C426.5,-883 432.5,-889 432.5,-895"/>
<polyline fill="none" stroke="black" points="432.5,-895 432.5,-1013 "/>
<path fill="none" stroke="black" d="M432.5,-1013C432.5,-1019 426.5,-1025 420.5,-1025"/>
<polyline fill="none" stroke="black" points="420.5,-1025 279.5,-1025 "/>
<path fill="none" stroke="black" d="M279.5,-1025C273.5,-1025 267.5,-1019 267.5,-1013"/>
<polyline fill="none" stroke="black" points="267.5,-1013 267.5,-895 "/>
<path fill="none" stroke="black" d="M267.5,-895C267.5,-889 273.5,-883 279.5,-883"/>
<text text-anchor="middle" x="350" y="-1008.4" font-family="Times Roman,serif" font-size="14.00">Role</text>
<polyline fill="none" stroke="black" points="267.5,-999 432.5,-999 "/>
<text text-anchor="start" x="275.5" y="-982.4" font-family="Times Roman,serif" font-size="14.00">id :integer</text>
<text text-anchor="start" x="275.5" y="-964.4" font-family="Times Roman,serif" font-size="14.00">name :string</text>
<text text-anchor="start" x="275.5" y="-946.4" font-family="Times Roman,serif" font-size="14.00">resource_id :integer</text>
<text text-anchor="start" x="275.5" y="-928.4" font-family="Times Roman,serif" font-size="14.00">resource_type :string</text>
<text text-anchor="start" x="275.5" y="-910.4" font-family="Times Roman,serif" font-size="14.00">created_at :datetime</text>
<text text-anchor="start" x="275.5" y="-892.4" font-family="Times Roman,serif" font-size="14.00">updated_at :datetime</text>
</g>
<!-- User -->
<g id="node7" class="node"><title>User</title>
<polyline fill="none" stroke="black" points="235,-559 465,-559 "/>
<path fill="none" stroke="black" d="M465,-559C471,-559 477,-565 477,-571"/>
<polyline fill="none" stroke="black" points="477,-571 477,-833 "/>
<path fill="none" stroke="black" d="M477,-833C477,-839 471,-845 465,-845"/>
<polyline fill="none" stroke="black" points="465,-845 235,-845 "/>
<path fill="none" stroke="black" d="M235,-845C229,-845 223,-839 223,-833"/>
<polyline fill="none" stroke="black" points="223,-833 223,-571 "/>
<path fill="none" stroke="black" d="M223,-571C223,-565 229,-559 235,-559"/>
<text text-anchor="middle" x="350" y="-828.4" font-family="Times Roman,serif" font-size="14.00">User</text>
<polyline fill="none" stroke="black" points="223,-819 477,-819 "/>
<text text-anchor="start" x="231" y="-802.4" font-family="Times Roman,serif" font-size="14.00">id :integer</text>
<text text-anchor="start" x="231" y="-784.4" font-family="Times Roman,serif" font-size="14.00">email :string</text>
<text text-anchor="start" x="231" y="-766.4" font-family="Times Roman,serif" font-size="14.00">encrypted_password :string</text>
<text text-anchor="start" x="231" y="-748.4" font-family="Times Roman,serif" font-size="14.00">reset_password_token :string</text>
<text text-anchor="start" x="231" y="-730.4" font-family="Times Roman,serif" font-size="14.00">reset_password_sent_at :datetime</text>
<text text-anchor="start" x="231" y="-712.4" font-family="Times Roman,serif" font-size="14.00">remember_created_at :datetime</text>
<text text-anchor="start" x="231" y="-694.4" font-family="Times Roman,serif" font-size="14.00">sign_in_count :integer</text>
<text text-anchor="start" x="231" y="-676.4" font-family="Times Roman,serif" font-size="14.00">current_sign_in_at :datetime</text>
<text text-anchor="start" x="231" y="-658.4" font-family="Times Roman,serif" font-size="14.00">last_sign_in_at :datetime</text>
<text text-anchor="start" x="231" y="-640.4" font-family="Times Roman,serif" font-size="14.00">current_sign_in_ip :string</text>
<text text-anchor="start" x="231" y="-622.4" font-family="Times Roman,serif" font-size="14.00">last_sign_in_ip :string</text>
<text text-anchor="start" x="231" y="-604.4" font-family="Times Roman,serif" font-size="14.00">created_at :datetime</text>
<text text-anchor="start" x="231" y="-586.4" font-family="Times Roman,serif" font-size="14.00">updated_at :datetime</text>
<text text-anchor="start" x="231" y="-568.4" font-family="Times Roman,serif" font-size="14.00">name :string</text>
</g>
<!-- Role&#45;&gt;User -->
<g id="edge6" class="edge"><title>Role&#45;&gt;User</title>
<path fill="none" stroke="#8149db" d="M350,-872.547C350,-866.861 350,-861.037 350,-855.128"/>
<polygon fill="#8149db" stroke="#8149db" points="350,-872.797 345.5,-882.797 350,-877.797 350,-882.797 350,-882.797 350,-882.797 350,-877.797 354.5,-882.797 350,-872.797 350,-872.797"/>
<polygon fill="#8149db" stroke="#8149db" points="350,-855.116 354.5,-845.116 350,-850.116 350,-845.116 350,-845.116 350,-845.116 350,-850.116 345.5,-845.116 350,-855.116 350,-855.116"/>
</g>
<!-- Ability -->
<g id="node4" class="node"><title>Ability</title>
<polygon fill="none" stroke="black" points="450,-928 450,-980 510,-980 510,-928 450,-928"/>
<text text-anchor="middle" x="480" y="-963.4" font-family="Times Roman,serif" font-size="14.00">Ability</text>
<polyline fill="none" stroke="black" points="450,-954 510,-954 "/>
<text text-anchor="middle" x="480" y="-937.4" font-family="Times Roman,serif" font-size="14.00"> </text>
</g>
<!-- Upload&#45;&gt;Submission -->
<g id="edge8" class="edge"><title>Upload&#45;&gt;Submission</title>
<path fill="none" stroke="#c4e877" d="M323.759,-173.848C328.232,-166.529 332.77,-159.103 337.252,-151.769"/>
<ellipse fill="none" stroke="#c4e877" cx="321.561" cy="-177.446" rx="4.00002" ry="4.00002"/>
<polygon fill="#c4e877" stroke="#c4e877" points="337.266,-151.746 346.32,-145.56 339.873,-147.48 342.481,-143.213 342.481,-143.213 342.481,-143.213 339.873,-147.48 338.641,-140.867 337.266,-151.746 337.266,-151.746"/>
</g>
<!-- User&#45;&gt;Bounty -->
<g id="edge10" class="edge"><title>User&#45;&gt;Bounty</title>
<path fill="none" stroke="#206e3e" d="M350,-550.738C350,-544.243 350,-537.819 350,-531.532"/>
<ellipse fill="none" stroke="#206e3e" cx="350" cy="-554.901" rx="4" ry="4"/>
<polygon fill="#206e3e" stroke="#206e3e" points="350,-531.091 354.5,-521.091 350,-526.091 350,-521.091 350,-521.091 350,-521.091 350,-526.091 345.5,-521.091 350,-531.091 350,-531.091"/>
</g>
<!-- User&#45;&gt;Upload -->
<g id="edge12" class="edge"><title>User&#45;&gt;Upload</title>
<path fill="none" stroke="#2ab7a8" d="M267.582,-551.1C264.222,-541.42 261.307,-531.676 259,-522 244.157,-459.743 249.933,-387.262 258.582,-333.082"/>
<ellipse fill="none" stroke="#2ab7a8" cx="269.015" cy="-555.082" rx="4.00001" ry="4.00001"/>
<polygon fill="#2ab7a8" stroke="#2ab7a8" points="258.587,-333.049 264.665,-323.922 259.407,-328.117 260.226,-323.185 260.226,-323.185 260.226,-323.185 259.407,-328.117 255.787,-322.447 258.587,-333.049 258.587,-333.049"/>
</g>
<!-- User&#45;&gt;Submission -->
<g id="edge14" class="edge"><title>User&#45;&gt;Submission</title>
<path fill="none" stroke="#b1a6f0" d="M432.418,-551.1C435.778,-541.42 438.693,-531.676 441,-522 471.291,-394.945 439.197,-243.513 412.871,-152.701"/>
<ellipse fill="none" stroke="#b1a6f0" cx="430.985" cy="-555.082" rx="4.00001" ry="4.00001"/>
<polygon fill="#b1a6f0" stroke="#b1a6f0" points="412.845,-152.613 414.336,-141.749 411.432,-147.817 410.019,-143.02 410.019,-143.02 410.019,-143.02 411.432,-147.817 405.703,-144.292 412.845,-152.613 412.845,-152.613"/>
</g>
</g>
</svg>
