<?xml version="1.0" encoding="UTF-8" standalone="no"?>
<!DOCTYPE svg PUBLIC "-//W3C//DTD SVG 1.1//EN"
 "http://www.w3.org/Graphics/SVG/1.1/DTD/svg11.dtd">
<!-- Generated by graphviz version 2.26.3 (20100126.1600)
 -->
<!-- Title: models_diagram Pages: 1 -->
<svg width="530pt" height="250pt"
 viewBox="0.00 0.00 530.00 250.00" xmlns="http://www.w3.org/2000/svg" xmlns:xlink="http://www.w3.org/1999/xlink">
<g id="graph1" class="graph" transform="scale(1 1) rotate(0) translate(4 246)">
<title>models_diagram</title>
<polygon fill="white" stroke="white" points="-4,5 -4,-246 527,-246 527,5 -4,5"/>
<!-- _diagram_info -->
<g id="node1" class="node"><title>_diagram_info</title>
<text text-anchor="start" x="8" y="-225.8" font-family="Times Roman,serif" font-size="13.00">Models diagram</text>
<text text-anchor="start" x="8" y="-208.8" font-family="Times Roman,serif" font-size="13.00">Date: Jan 16 2013 &#45; 13:05</text>
<text text-anchor="start" x="8" y="-191.8" font-family="Times Roman,serif" font-size="13.00">Migration version: 20130116180154</text>
<text text-anchor="start" x="8" y="-174.8" font-family="Times Roman,serif" font-size="13.00">Generated by RailRoady 1.1.0</text>
<text text-anchor="start" x="8" y="-157.8" font-family="Times Roman,serif" font-size="13.00">http://railroady.prestonlee.com</text>
</g>
<!-- Bounty -->
<g id="node2" class="node"><title>Bounty</title>
<ellipse fill="none" stroke="black" cx="315" cy="-195" rx="46.8775" ry="18.3848"/>
<text text-anchor="middle" x="315" y="-191.4" font-family="Times Roman,serif" font-size="14.00">Bounty</text>
</g>
<!-- Upload -->
<g id="node5" class="node"><title>Upload</title>
<ellipse fill="none" stroke="black" cx="259" cy="-93" rx="44.7575" ry="18.3848"/>
<text text-anchor="middle" x="259" y="-89.4" font-family="Times Roman,serif" font-size="14.00">Upload</text>
</g>
<!-- Bounty&#45;&gt;Upload -->
<g id="edge4" class="edge"><title>Bounty&#45;&gt;Upload</title>
<path fill="none" stroke="#1d18bb" d="M300.121,-167.899C292.027,-153.156 282.043,-134.971 273.94,-120.212"/>
<polygon fill="#1d18bb" stroke="#1d18bb" points="300.176,-167.999 301.044,-178.93 302.582,-172.382 304.988,-176.764 304.988,-176.764 304.988,-176.764 302.582,-172.382 308.933,-174.599 300.176,-167.999 300.176,-167.999"/>
<polygon fill="#1d18bb" stroke="#1d18bb" points="273.738,-119.843 272.87,-108.912 271.331,-115.461 268.925,-111.078 268.925,-111.078 268.925,-111.078 271.331,-115.461 264.98,-113.243 273.738,-119.843 273.738,-119.843"/>
</g>
<!-- Submission -->
<g id="node6" class="node"><title>Submission</title>
<ellipse fill="none" stroke="black" cx="295" cy="-19" rx="65.9683" ry="18.3848"/>
<text text-anchor="middle" x="295" y="-15.4" font-family="Times Roman,serif" font-size="14.00">Submission</text>
</g>
<!-- Bounty&#45;&gt;Submission -->
<g id="edge2" class="edge"><title>Bounty&#45;&gt;Submission</title>
<path fill="none" stroke="#3035c0" d="M316.836,-168.238C317.991,-143.579 318.386,-106.064 313,-74 311.493,-65.0269 308.799,-55.5194 305.948,-46.9786"/>
<ellipse fill="none" stroke="#3035c0" cx="316.616" cy="-172.399" rx="4" ry="4"/>
<polygon fill="#3035c0" stroke="#3035c0" points="305.925,-46.9135 306.831,-35.9852 304.257,-42.2 302.589,-37.4864 302.589,-37.4864 302.589,-37.4864 304.257,-42.2 298.347,-38.9875 305.925,-46.9135 305.925,-46.9135"/>
</g>
<!-- Role -->
<g id="node3" class="node"><title>Role</title>
<ellipse fill="none" stroke="black" cx="412" cy="-195" rx="32.0265" ry="18.3848"/>
<text text-anchor="middle" x="412" y="-191.4" font-family="Times Roman,serif" font-size="14.00">Role</text>
</g>
<!-- User -->
<g id="node7" class="node"><title>User</title>
<ellipse fill="none" stroke="black" cx="412" cy="-93" rx="33.9411" ry="18.3848"/>
<text text-anchor="middle" x="412" y="-89.4" font-family="Times Roman,serif" font-size="14.00">User</text>
</g>
<!-- Role&#45;&gt;User -->
<g id="edge6" class="edge"><title>Role&#45;&gt;User</title>
<path fill="none" stroke="#270dc3" d="M412,-166.054C412,-152.256 412,-135.791 412,-121.987"/>
<polygon fill="#270dc3" stroke="#270dc3" points="412,-166.292 407.5,-176.292 412,-171.292 412,-176.292 412,-176.292 412,-176.292 412,-171.292 416.5,-176.292 412,-166.292 412,-166.292"/>
<polygon fill="#270dc3" stroke="#270dc3" points="412,-121.59 416.5,-111.59 412,-116.59 412,-111.59 412,-111.59 412,-111.59 412,-116.59 407.5,-111.59 412,-121.59 412,-121.59"/>
</g>
<!-- Ability -->
<g id="node4" class="node"><title>Ability</title>
<polygon fill="none" stroke="black" points="522,-213 462,-213 462,-177 522,-177 522,-213"/>
<text text-anchor="middle" x="492" y="-191.4" font-family="Times Roman,serif" font-size="14.00">Ability</text>
</g>
<!-- Upload&#45;&gt;Submission -->
<g id="edge8" class="edge"><title>Upload&#45;&gt;Submission</title>
<path fill="none" stroke="#0efd4b" d="M271.441,-67.427C274.752,-60.6209 278.341,-53.2428 281.697,-46.3459"/>
<ellipse fill="none" stroke="#0efd4b" cx="269.649" cy="-71.1109" rx="4.00002" ry="4.00002"/>
<polygon fill="#0efd4b" stroke="#0efd4b" points="281.704,-46.3305 290.125,-39.3068 283.891,-41.8344 286.079,-37.3382 286.079,-37.3382 286.079,-37.3382 283.891,-41.8344 282.032,-35.3696 281.704,-46.3305 281.704,-46.3305"/>
</g>
</g>
</svg>
