<?xml version="1.0" encoding="UTF-8" standalone="no"?>
<!DOCTYPE svg PUBLIC "-//W3C//DTD SVG 1.1//EN"
 "http://www.w3.org/Graphics/SVG/1.1/DTD/svg11.dtd">
<!-- Generated by graphviz version 2.26.3 (20100126.1600)
 -->
<!-- Title: models_diagram Pages: 1 -->
<svg width="1064pt" height="494pt"
 viewBox="0.00 0.00 1064.00 494.00" xmlns="http://www.w3.org/2000/svg" xmlns:xlink="http://www.w3.org/1999/xlink">
<g id="graph1" class="graph" transform="scale(1 1) rotate(0) translate(4 490)">
<title>models_diagram</title>
<polygon fill="white" stroke="white" points="-4,5 -4,-490 1061,-490 1061,5 -4,5"/>
<!-- _diagram_info -->
<g id="node1" class="node"><title>_diagram_info</title>
<text text-anchor="start" x="8" y="-435.8" font-family="Times Roman,serif" font-size="13.00">Models diagram</text>
<text text-anchor="start" x="8" y="-418.8" font-family="Times Roman,serif" font-size="13.00">Date: Jan 16 2013 &#45; 12:59</text>
<text text-anchor="start" x="8" y="-401.8" font-family="Times Roman,serif" font-size="13.00">Migration version: 20130116175813</text>
<text text-anchor="start" x="8" y="-384.8" font-family="Times Roman,serif" font-size="13.00">Generated by RailRoady 1.1.0</text>
<text text-anchor="start" x="8" y="-367.8" font-family="Times Roman,serif" font-size="13.00">http://railroady.prestonlee.com</text>
</g>
<!-- Bounty -->
<g id="node2" class="node"><title>Bounty</title>
<polyline fill="none" stroke="black" points="279.5,-325 420.5,-325 "/>
<path fill="none" stroke="black" d="M420.5,-325C426.5,-325 432.5,-331 432.5,-337"/>
<polyline fill="none" stroke="black" points="432.5,-337 432.5,-473 "/>
<path fill="none" stroke="black" d="M432.5,-473C432.5,-479 426.5,-485 420.5,-485"/>
<polyline fill="none" stroke="black" points="420.5,-485 279.5,-485 "/>
<path fill="none" stroke="black" d="M279.5,-485C273.5,-485 267.5,-479 267.5,-473"/>
<polyline fill="none" stroke="black" points="267.5,-473 267.5,-337 "/>
<path fill="none" stroke="black" d="M267.5,-337C267.5,-331 273.5,-325 279.5,-325"/>
<text text-anchor="middle" x="350" y="-468.4" font-family="Times Roman,serif" font-size="14.00">Bounty</text>
<polyline fill="none" stroke="black" points="267.5,-459 432.5,-459 "/>
<text text-anchor="start" x="275.5" y="-442.4" font-family="Times Roman,serif" font-size="14.00">id :integer</text>
<text text-anchor="start" x="275.5" y="-424.4" font-family="Times Roman,serif" font-size="14.00">user_id :integer</text>
<text text-anchor="start" x="275.5" y="-406.4" font-family="Times Roman,serif" font-size="14.00">title :string</text>
<text text-anchor="start" x="275.5" y="-388.4" font-family="Times Roman,serif" font-size="14.00">body :text</text>
<text text-anchor="start" x="275.5" y="-370.4" font-family="Times Roman,serif" font-size="14.00">bounty :integer</text>
<text text-anchor="start" x="275.5" y="-352.4" font-family="Times Roman,serif" font-size="14.00">created_at :datetime</text>
<text text-anchor="start" x="275.5" y="-334.4" font-family="Times Roman,serif" font-size="14.00">updated_at :datetime</text>
</g>
<!-- Role -->
<g id="node3" class="node"><title>Role</title>
<polyline fill="none" stroke="black" points="461.5,-334 602.5,-334 "/>
<path fill="none" stroke="black" d="M602.5,-334C608.5,-334 614.5,-340 614.5,-346"/>
<polyline fill="none" stroke="black" points="614.5,-346 614.5,-464 "/>
<path fill="none" stroke="black" d="M614.5,-464C614.5,-470 608.5,-476 602.5,-476"/>
<polyline fill="none" stroke="black" points="602.5,-476 461.5,-476 "/>
<path fill="none" stroke="black" d="M461.5,-476C455.5,-476 449.5,-470 449.5,-464"/>
<polyline fill="none" stroke="black" points="449.5,-464 449.5,-346 "/>
<path fill="none" stroke="black" d="M449.5,-346C449.5,-340 455.5,-334 461.5,-334"/>
<text text-anchor="middle" x="532" y="-459.4" font-family="Times Roman,serif" font-size="14.00">Role</text>
<polyline fill="none" stroke="black" points="449.5,-450 614.5,-450 "/>
<text text-anchor="start" x="457.5" y="-433.4" font-family="Times Roman,serif" font-size="14.00">id :integer</text>
<text text-anchor="start" x="457.5" y="-415.4" font-family="Times Roman,serif" font-size="14.00">name :string</text>
<text text-anchor="start" x="457.5" y="-397.4" font-family="Times Roman,serif" font-size="14.00">resource_id :integer</text>
<text text-anchor="start" x="457.5" y="-379.4" font-family="Times Roman,serif" font-size="14.00">resource_type :string</text>
<text text-anchor="start" x="457.5" y="-361.4" font-family="Times Roman,serif" font-size="14.00">created_at :datetime</text>
<text text-anchor="start" x="457.5" y="-343.4" font-family="Times Roman,serif" font-size="14.00">updated_at :datetime</text>
</g>
<!-- User -->
<g id="node7" class="node"><title>User</title>
<polyline fill="none" stroke="black" points="417,-1 647,-1 "/>
<path fill="none" stroke="black" d="M647,-1C653,-1 659,-7 659,-13"/>
<polyline fill="none" stroke="black" points="659,-13 659,-275 "/>
<path fill="none" stroke="black" d="M659,-275C659,-281 653,-287 647,-287"/>
<polyline fill="none" stroke="black" points="647,-287 417,-287 "/>
<path fill="none" stroke="black" d="M417,-287C411,-287 405,-281 405,-275"/>
<polyline fill="none" stroke="black" points="405,-275 405,-13 "/>
<path fill="none" stroke="black" d="M405,-13C405,-7 411,-1 417,-1"/>
<text text-anchor="middle" x="532" y="-270.4" font-family="Times Roman,serif" font-size="14.00">User</text>
<polyline fill="none" stroke="black" points="405,-261 659,-261 "/>
<text text-anchor="start" x="413" y="-244.4" font-family="Times Roman,serif" font-size="14.00">id :integer</text>
<text text-anchor="start" x="413" y="-226.4" font-family="Times Roman,serif" font-size="14.00">email :string</text>
<text text-anchor="start" x="413" y="-208.4" font-family="Times Roman,serif" font-size="14.00">encrypted_password :string</text>
<text text-anchor="start" x="413" y="-190.4" font-family="Times Roman,serif" font-size="14.00">reset_password_token :string</text>
<text text-anchor="start" x="413" y="-172.4" font-family="Times Roman,serif" font-size="14.00">reset_password_sent_at :datetime</text>
<text text-anchor="start" x="413" y="-154.4" font-family="Times Roman,serif" font-size="14.00">remember_created_at :datetime</text>
<text text-anchor="start" x="413" y="-136.4" font-family="Times Roman,serif" font-size="14.00">sign_in_count :integer</text>
<text text-anchor="start" x="413" y="-118.4" font-family="Times Roman,serif" font-size="14.00">current_sign_in_at :datetime</text>
<text text-anchor="start" x="413" y="-100.4" font-family="Times Roman,serif" font-size="14.00">last_sign_in_at :datetime</text>
<text text-anchor="start" x="413" y="-82.4" font-family="Times Roman,serif" font-size="14.00">current_sign_in_ip :string</text>
<text text-anchor="start" x="413" y="-64.4" font-family="Times Roman,serif" font-size="14.00">last_sign_in_ip :string</text>
<text text-anchor="start" x="413" y="-46.4" font-family="Times Roman,serif" font-size="14.00">created_at :datetime</text>
<text text-anchor="start" x="413" y="-28.4" font-family="Times Roman,serif" font-size="14.00">updated_at :datetime</text>
<text text-anchor="start" x="413" y="-10.4" font-family="Times Roman,serif" font-size="14.00">name :string</text>
</g>
<!-- Role&#45;&gt;User -->
<g id="edge2" class="edge"><title>Role&#45;&gt;User</title>
<path fill="none" stroke="#bb4c30" d="M532,-323.653C532,-315.225 532,-306.475 532,-297.579"/>
<polygon fill="#bb4c30" stroke="#bb4c30" points="532,-323.681 527.5,-333.681 532,-328.681 532,-333.681 532,-333.681 532,-333.681 532,-328.681 536.5,-333.681 532,-323.681 532,-323.681"/>
<polygon fill="#bb4c30" stroke="#bb4c30" points="532,-297.48 536.5,-287.48 532,-292.48 532,-287.48 532,-287.48 532,-287.48 532,-292.48 527.5,-287.48 532,-297.48 532,-297.48"/>
</g>
<!-- Ability -->
<g id="node4" class="node"><title>Ability</title>
<polygon fill="none" stroke="black" points="632,-379 632,-431 692,-431 692,-379 632,-379"/>
<text text-anchor="middle" x="662" y="-414.4" font-family="Times Roman,serif" font-size="14.00">Ability</text>
<polyline fill="none" stroke="black" points="632,-405 692,-405 "/>
<text text-anchor="middle" x="662" y="-388.4" font-family="Times Roman,serif" font-size="14.00"> </text>
</g>
<!-- Upload -->
<g id="node5" class="node"><title>Upload</title>
<polyline fill="none" stroke="black" points="721.5,-343 862.5,-343 "/>
<path fill="none" stroke="black" d="M862.5,-343C868.5,-343 874.5,-349 874.5,-355"/>
<polyline fill="none" stroke="black" points="874.5,-355 874.5,-455 "/>
<path fill="none" stroke="black" d="M874.5,-455C874.5,-461 868.5,-467 862.5,-467"/>
<polyline fill="none" stroke="black" points="862.5,-467 721.5,-467 "/>
<path fill="none" stroke="black" d="M721.5,-467C715.5,-467 709.5,-461 709.5,-455"/>
<polyline fill="none" stroke="black" points="709.5,-455 709.5,-355 "/>
<path fill="none" stroke="black" d="M709.5,-355C709.5,-349 715.5,-343 721.5,-343"/>
<text text-anchor="middle" x="792" y="-450.4" font-family="Times Roman,serif" font-size="14.00">Upload</text>
<polyline fill="none" stroke="black" points="709.5,-441 874.5,-441 "/>
<text text-anchor="start" x="717.5" y="-424.4" font-family="Times Roman,serif" font-size="14.00">id :integer</text>
<text text-anchor="start" x="717.5" y="-406.4" font-family="Times Roman,serif" font-size="14.00">title :string</text>
<text text-anchor="start" x="717.5" y="-388.4" font-family="Times Roman,serif" font-size="14.00">upload :string</text>
<text text-anchor="start" x="717.5" y="-370.4" font-family="Times Roman,serif" font-size="14.00">created_at :datetime</text>
<text text-anchor="start" x="717.5" y="-352.4" font-family="Times Roman,serif" font-size="14.00">updated_at :datetime</text>
</g>
<!-- Submission -->
<g id="node6" class="node"><title>Submission</title>
<polyline fill="none" stroke="black" points="903.5,-343 1044.5,-343 "/>
<path fill="none" stroke="black" d="M1044.5,-343C1050.5,-343 1056.5,-349 1056.5,-355"/>
<polyline fill="none" stroke="black" points="1056.5,-355 1056.5,-455 "/>
<path fill="none" stroke="black" d="M1056.5,-455C1056.5,-461 1050.5,-467 1044.5,-467"/>
<polyline fill="none" stroke="black" points="1044.5,-467 903.5,-467 "/>
<path fill="none" stroke="black" d="M903.5,-467C897.5,-467 891.5,-461 891.5,-455"/>
<polyline fill="none" stroke="black" points="891.5,-455 891.5,-355 "/>
<path fill="none" stroke="black" d="M891.5,-355C891.5,-349 897.5,-343 903.5,-343"/>
<text text-anchor="middle" x="974" y="-450.4" font-family="Times Roman,serif" font-size="14.00">Submission</text>
<polyline fill="none" stroke="black" points="891.5,-441 1056.5,-441 "/>
<text text-anchor="start" x="899.5" y="-424.4" font-family="Times Roman,serif" font-size="14.00">id :integer</text>
<text text-anchor="start" x="899.5" y="-406.4" font-family="Times Roman,serif" font-size="14.00">upload_id :integer</text>
<text text-anchor="start" x="899.5" y="-388.4" font-family="Times Roman,serif" font-size="14.00">bounty_id :integer</text>
<text text-anchor="start" x="899.5" y="-370.4" font-family="Times Roman,serif" font-size="14.00">created_at :datetime</text>
<text text-anchor="start" x="899.5" y="-352.4" font-family="Times Roman,serif" font-size="14.00">updated_at :datetime</text>
</g>
</g>
</svg>
