<?xml version="1.0" encoding="UTF-8" standalone="no"?>
<!DOCTYPE svg PUBLIC "-//W3C//DTD SVG 1.1//EN"
 "http://www.w3.org/Graphics/SVG/1.1/DTD/svg11.dtd">
<!-- Generated by graphviz version 2.26.3 (20100126.1600)
 -->
<!-- Title: models_diagram Pages: 1 -->
<svg width="518pt" height="476pt"
 viewBox="0.00 0.00 518.00 476.00" xmlns="http://www.w3.org/2000/svg" xmlns:xlink="http://www.w3.org/1999/xlink">
<g id="graph1" class="graph" transform="scale(1 1) rotate(0) translate(4 472)">
<title>models_diagram</title>
<polygon fill="white" stroke="white" points="-4,5 -4,-472 515,-472 515,5 -4,5"/>
<!-- _diagram_info -->
<g id="node1" class="node"><title>_diagram_info</title>
<text text-anchor="start" x="8" y="-426.8" font-family="Times Roman,serif" font-size="13.00">Models diagram</text>
<text text-anchor="start" x="8" y="-409.8" font-family="Times Roman,serif" font-size="13.00">Date: Jan 16 2013 &#45; 12:39</text>
<text text-anchor="start" x="8" y="-392.8" font-family="Times Roman,serif" font-size="13.00">Migration version: 20130116164457</text>
<text text-anchor="start" x="8" y="-375.8" font-family="Times Roman,serif" font-size="13.00">Generated by RailRoady 1.1.0</text>
<text text-anchor="start" x="8" y="-358.8" font-family="Times Roman,serif" font-size="13.00">http://railroady.prestonlee.com</text>
</g>
<!-- Role -->
<g id="node2" class="node"><title>Role</title>
<polyline fill="none" stroke="black" points="279.5,-325 420.5,-325 "/>
<path fill="none" stroke="black" d="M420.5,-325C426.5,-325 432.5,-331 432.5,-337"/>
<polyline fill="none" stroke="black" points="432.5,-337 432.5,-455 "/>
<path fill="none" stroke="black" d="M432.5,-455C432.5,-461 426.5,-467 420.5,-467"/>
<polyline fill="none" stroke="black" points="420.5,-467 279.5,-467 "/>
<path fill="none" stroke="black" d="M279.5,-467C273.5,-467 267.5,-461 267.5,-455"/>
<polyline fill="none" stroke="black" points="267.5,-455 267.5,-337 "/>
<path fill="none" stroke="black" d="M267.5,-337C267.5,-331 273.5,-325 279.5,-325"/>
<text text-anchor="middle" x="350" y="-450.4" font-family="Times Roman,serif" font-size="14.00">Role</text>
<polyline fill="none" stroke="black" points="267.5,-441 432.5,-441 "/>
<text text-anchor="start" x="275.5" y="-424.4" font-family="Times Roman,serif" font-size="14.00">id :integer</text>
<text text-anchor="start" x="275.5" y="-406.4" font-family="Times Roman,serif" font-size="14.00">name :string</text>
<text text-anchor="start" x="275.5" y="-388.4" font-family="Times Roman,serif" font-size="14.00">resource_id :integer</text>
<text text-anchor="start" x="275.5" y="-370.4" font-family="Times Roman,serif" font-size="14.00">resource_type :string</text>
<text text-anchor="start" x="275.5" y="-352.4" font-family="Times Roman,serif" font-size="14.00">created_at :datetime</text>
<text text-anchor="start" x="275.5" y="-334.4" font-family="Times Roman,serif" font-size="14.00">updated_at :datetime</text>
</g>
<!-- User -->
<g id="node4" class="node"><title>User</title>
<polyline fill="none" stroke="black" points="235,-1 465,-1 "/>
<path fill="none" stroke="black" d="M465,-1C471,-1 477,-7 477,-13"/>
<polyline fill="none" stroke="black" points="477,-13 477,-275 "/>
<path fill="none" stroke="black" d="M477,-275C477,-281 471,-287 465,-287"/>
<polyline fill="none" stroke="black" points="465,-287 235,-287 "/>
<path fill="none" stroke="black" d="M235,-287C229,-287 223,-281 223,-275"/>
<polyline fill="none" stroke="black" points="223,-275 223,-13 "/>
<path fill="none" stroke="black" d="M223,-13C223,-7 229,-1 235,-1"/>
<text text-anchor="middle" x="350" y="-270.4" font-family="Times Roman,serif" font-size="14.00">User</text>
<polyline fill="none" stroke="black" points="223,-261 477,-261 "/>
<text text-anchor="start" x="231" y="-244.4" font-family="Times Roman,serif" font-size="14.00">id :integer</text>
<text text-anchor="start" x="231" y="-226.4" font-family="Times Roman,serif" font-size="14.00">email :string</text>
<text text-anchor="start" x="231" y="-208.4" font-family="Times Roman,serif" font-size="14.00">encrypted_password :string</text>
<text text-anchor="start" x="231" y="-190.4" font-family="Times Roman,serif" font-size="14.00">reset_password_token :string</text>
<text text-anchor="start" x="231" y="-172.4" font-family="Times Roman,serif" font-size="14.00">reset_password_sent_at :datetime</text>
<text text-anchor="start" x="231" y="-154.4" font-family="Times Roman,serif" font-size="14.00">remember_created_at :datetime</text>
<text text-anchor="start" x="231" y="-136.4" font-family="Times Roman,serif" font-size="14.00">sign_in_count :integer</text>
<text text-anchor="start" x="231" y="-118.4" font-family="Times Roman,serif" font-size="14.00">current_sign_in_at :datetime</text>
<text text-anchor="start" x="231" y="-100.4" font-family="Times Roman,serif" font-size="14.00">last_sign_in_at :datetime</text>
<text text-anchor="start" x="231" y="-82.4" font-family="Times Roman,serif" font-size="14.00">current_sign_in_ip :string</text>
<text text-anchor="start" x="231" y="-64.4" font-family="Times Roman,serif" font-size="14.00">last_sign_in_ip :string</text>
<text text-anchor="start" x="231" y="-46.4" font-family="Times Roman,serif" font-size="14.00">created_at :datetime</text>
<text text-anchor="start" x="231" y="-28.4" font-family="Times Roman,serif" font-size="14.00">updated_at :datetime</text>
<text text-anchor="start" x="231" y="-10.4" font-family="Times Roman,serif" font-size="14.00">name :string</text>
</g>
<!-- Role&#45;&gt;User -->
<g id="edge2" class="edge"><title>Role&#45;&gt;User</title>
<path fill="none" stroke="#de1690" d="M350,-314.547C350,-308.861 350,-303.037 350,-297.128"/>
<polygon fill="#de1690" stroke="#de1690" points="350,-314.797 345.5,-324.797 350,-319.797 350,-324.797 350,-324.797 350,-324.797 350,-319.797 354.5,-324.797 350,-314.797 350,-314.797"/>
<polygon fill="#de1690" stroke="#de1690" points="350,-297.116 354.5,-287.116 350,-292.116 350,-287.116 350,-287.116 350,-287.116 350,-292.116 345.5,-287.116 350,-297.116 350,-297.116"/>
</g>
<!-- Ability -->
<g id="node3" class="node"><title>Ability</title>
<polygon fill="none" stroke="black" points="450,-370 450,-422 510,-422 510,-370 450,-370"/>
<text text-anchor="middle" x="480" y="-405.4" font-family="Times Roman,serif" font-size="14.00">Ability</text>
<polyline fill="none" stroke="black" points="450,-396 510,-396 "/>
<text text-anchor="middle" x="480" y="-379.4" font-family="Times Roman,serif" font-size="14.00"> </text>
</g>
</g>
</svg>
