<?xml version="1.0" encoding="UTF-8" standalone="no"?>
<!DOCTYPE svg PUBLIC "-//W3C//DTD SVG 1.1//EN"
 "http://www.w3.org/Graphics/SVG/1.1/DTD/svg11.dtd">
<!-- Generated by graphviz version 2.26.3 (20100126.1600)
 -->
<!-- Title: models_diagram Pages: 1 -->
<svg width="802pt" height="1286pt"
 viewBox="0.00 0.00 802.00 1286.00" xmlns="http://www.w3.org/2000/svg" xmlns:xlink="http://www.w3.org/1999/xlink">
<g id="graph1" class="graph" transform="scale(1 1) rotate(0) translate(4 1282)">
<title>models_diagram</title>
<polygon fill="white" stroke="white" points="-4,5 -4,-1282 799,-1282 799,5 -4,5"/>
<!-- _diagram_info -->
<g id="node1" class="node"><title>_diagram_info</title>
<text text-anchor="start" x="110" y="-1236.8" font-family="Times Roman,serif" font-size="13.00">Models diagram</text>
<text text-anchor="start" x="110" y="-1219.8" font-family="Times Roman,serif" font-size="13.00">Date: Jan 18 2013 &#45; 00:42</text>
<text text-anchor="start" x="110" y="-1202.8" font-family="Times Roman,serif" font-size="13.00">Migration version: 20130118041607</text>
<text text-anchor="start" x="110" y="-1185.8" font-family="Times Roman,serif" font-size="13.00">Generated by RailRoady 1.1.0</text>
<text text-anchor="start" x="110" y="-1168.8" font-family="Times Roman,serif" font-size="13.00">http://railroady.prestonlee.com</text>
</g>
<!-- Bounty -->
<g id="node2" class="node"><title>Bounty</title>
<polyline fill="none" stroke="black" points="231.5,-577 372.5,-577 "/>
<path fill="none" stroke="black" d="M372.5,-577C378.5,-577 384.5,-583 384.5,-589"/>
<polyline fill="none" stroke="black" points="384.5,-589 384.5,-761 "/>
<path fill="none" stroke="black" d="M384.5,-761C384.5,-767 378.5,-773 372.5,-773"/>
<polyline fill="none" stroke="black" points="372.5,-773 231.5,-773 "/>
<path fill="none" stroke="black" d="M231.5,-773C225.5,-773 219.5,-767 219.5,-761"/>
<polyline fill="none" stroke="black" points="219.5,-761 219.5,-589 "/>
<path fill="none" stroke="black" d="M219.5,-589C219.5,-583 225.5,-577 231.5,-577"/>
<text text-anchor="middle" x="302" y="-756.4" font-family="Times Roman,serif" font-size="14.00">Bounty</text>
<polyline fill="none" stroke="black" points="219.5,-747 384.5,-747 "/>
<text text-anchor="start" x="227.5" y="-730.4" font-family="Times Roman,serif" font-size="14.00">id :integer</text>
<text text-anchor="start" x="227.5" y="-712.4" font-family="Times Roman,serif" font-size="14.00">user_id :integer</text>
<text text-anchor="start" x="227.5" y="-694.4" font-family="Times Roman,serif" font-size="14.00">title :string</text>
<text text-anchor="start" x="227.5" y="-676.4" font-family="Times Roman,serif" font-size="14.00">body :text</text>
<text text-anchor="start" x="227.5" y="-658.4" font-family="Times Roman,serif" font-size="14.00">bounty :integer</text>
<text text-anchor="start" x="227.5" y="-640.4" font-family="Times Roman,serif" font-size="14.00">created_at :datetime</text>
<text text-anchor="start" x="227.5" y="-622.4" font-family="Times Roman,serif" font-size="14.00">updated_at :datetime</text>
<text text-anchor="start" x="227.5" y="-604.4" font-family="Times Roman,serif" font-size="14.00">display :boolean</text>
<text text-anchor="start" x="227.5" y="-586.4" font-family="Times Roman,serif" font-size="14.00">paid :boolean</text>
</g>
<!-- Discussion -->
<g id="node5" class="node"><title>Discussion</title>
<polyline fill="none" stroke="black" points="11.5,-370 152.5,-370 "/>
<path fill="none" stroke="black" d="M152.5,-370C158.5,-370 164.5,-376 164.5,-382"/>
<polyline fill="none" stroke="black" points="164.5,-382 164.5,-518 "/>
<path fill="none" stroke="black" d="M164.5,-518C164.5,-524 158.5,-530 152.5,-530"/>
<polyline fill="none" stroke="black" points="152.5,-530 11.5,-530 "/>
<path fill="none" stroke="black" d="M11.5,-530C5.5,-530 -0.5,-524 -0.5,-518"/>
<polyline fill="none" stroke="black" points="-0.5,-518 -0.5,-382 "/>
<path fill="none" stroke="black" d="M-0.5,-382C-0.5,-376 5.5,-370 11.5,-370"/>
<text text-anchor="middle" x="82" y="-513.4" font-family="Times Roman,serif" font-size="14.00">Discussion</text>
<polyline fill="none" stroke="black" points="-0.5,-504 164.5,-504 "/>
<text text-anchor="start" x="7.5" y="-487.4" font-family="Times Roman,serif" font-size="14.00">id :integer</text>
<text text-anchor="start" x="7.5" y="-469.4" font-family="Times Roman,serif" font-size="14.00">discussion :text</text>
<text text-anchor="start" x="7.5" y="-451.4" font-family="Times Roman,serif" font-size="14.00">user_id :integer</text>
<text text-anchor="start" x="7.5" y="-433.4" font-family="Times Roman,serif" font-size="14.00">bounty_id :integer</text>
<text text-anchor="start" x="7.5" y="-415.4" font-family="Times Roman,serif" font-size="14.00">created_at :datetime</text>
<text text-anchor="start" x="7.5" y="-397.4" font-family="Times Roman,serif" font-size="14.00">updated_at :datetime</text>
<text text-anchor="start" x="7.5" y="-379.4" font-family="Times Roman,serif" font-size="14.00">parent_id :integer</text>
</g>
<!-- Bounty&#45;&gt;Discussion -->
<g id="edge6" class="edge"><title>Bounty&#45;&gt;Discussion</title>
<path fill="none" stroke="#7f2d54" d="M213.513,-584.502C198.375,-569.02 182.672,-552.96 167.611,-537.556"/>
<ellipse fill="none" stroke="#7f2d54" cx="216.658" cy="-587.718" rx="4.00002" ry="4.00002"/>
<polygon fill="#7f2d54" stroke="#7f2d54" points="167.265,-537.203 163.492,-526.907 163.77,-533.628 160.274,-530.053 160.274,-530.053 160.274,-530.053 163.77,-533.628 157.056,-533.199 167.265,-537.203 167.265,-537.203"/>
</g>
<!-- Upload -->
<g id="node7" class="node"><title>Upload</title>
<polyline fill="none" stroke="black" points="231.5,-361 372.5,-361 "/>
<path fill="none" stroke="black" d="M372.5,-361C378.5,-361 384.5,-367 384.5,-373"/>
<polyline fill="none" stroke="black" points="384.5,-373 384.5,-527 "/>
<path fill="none" stroke="black" d="M384.5,-527C384.5,-533 378.5,-539 372.5,-539"/>
<polyline fill="none" stroke="black" points="372.5,-539 231.5,-539 "/>
<path fill="none" stroke="black" d="M231.5,-539C225.5,-539 219.5,-533 219.5,-527"/>
<polyline fill="none" stroke="black" points="219.5,-527 219.5,-373 "/>
<path fill="none" stroke="black" d="M219.5,-373C219.5,-367 225.5,-361 231.5,-361"/>
<text text-anchor="middle" x="302" y="-522.4" font-family="Times Roman,serif" font-size="14.00">Upload</text>
<polyline fill="none" stroke="black" points="219.5,-513 384.5,-513 "/>
<text text-anchor="start" x="227.5" y="-496.4" font-family="Times Roman,serif" font-size="14.00">id :integer</text>
<text text-anchor="start" x="227.5" y="-478.4" font-family="Times Roman,serif" font-size="14.00">title :string</text>
<text text-anchor="start" x="227.5" y="-460.4" font-family="Times Roman,serif" font-size="14.00">upload :string</text>
<text text-anchor="start" x="227.5" y="-442.4" font-family="Times Roman,serif" font-size="14.00">created_at :datetime</text>
<text text-anchor="start" x="227.5" y="-424.4" font-family="Times Roman,serif" font-size="14.00">updated_at :datetime</text>
<text text-anchor="start" x="227.5" y="-406.4" font-family="Times Roman,serif" font-size="14.00">user_id :integer</text>
<text text-anchor="start" x="227.5" y="-388.4" font-family="Times Roman,serif" font-size="14.00">agreement :boolean</text>
<text text-anchor="start" x="227.5" y="-370.4" font-family="Times Roman,serif" font-size="14.00">artist :string</text>
</g>
<!-- Bounty&#45;&gt;Upload -->
<g id="edge4" class="edge"><title>Bounty&#45;&gt;Upload</title>
<path fill="none" stroke="#e3fd03" d="M302,-566.923C302,-561.123 302,-555.307 302,-549.537"/>
<polygon fill="#e3fd03" stroke="#e3fd03" points="302,-566.966 297.5,-576.966 302,-571.966 302,-576.966 302,-576.966 302,-576.966 302,-571.966 306.5,-576.966 302,-566.966 302,-566.966"/>
<polygon fill="#e3fd03" stroke="#e3fd03" points="302,-549.214 306.5,-539.214 302,-544.214 302,-539.214 302,-539.214 302,-539.214 302,-544.214 297.5,-539.214 302,-549.214 302,-549.214"/>
</g>
<!-- Submission -->
<g id="node8" class="node"><title>Submission</title>
<polyline fill="none" stroke="black" points="313.5,-181 454.5,-181 "/>
<path fill="none" stroke="black" d="M454.5,-181C460.5,-181 466.5,-187 466.5,-193"/>
<polyline fill="none" stroke="black" points="466.5,-193 466.5,-311 "/>
<path fill="none" stroke="black" d="M466.5,-311C466.5,-317 460.5,-323 454.5,-323"/>
<polyline fill="none" stroke="black" points="454.5,-323 313.5,-323 "/>
<path fill="none" stroke="black" d="M313.5,-323C307.5,-323 301.5,-317 301.5,-311"/>
<polyline fill="none" stroke="black" points="301.5,-311 301.5,-193 "/>
<path fill="none" stroke="black" d="M301.5,-193C301.5,-187 307.5,-181 313.5,-181"/>
<text text-anchor="middle" x="384" y="-306.4" font-family="Times Roman,serif" font-size="14.00">Submission</text>
<polyline fill="none" stroke="black" points="301.5,-297 466.5,-297 "/>
<text text-anchor="start" x="309.5" y="-280.4" font-family="Times Roman,serif" font-size="14.00">id :integer</text>
<text text-anchor="start" x="309.5" y="-262.4" font-family="Times Roman,serif" font-size="14.00">upload_id :integer</text>
<text text-anchor="start" x="309.5" y="-244.4" font-family="Times Roman,serif" font-size="14.00">bounty_id :integer</text>
<text text-anchor="start" x="309.5" y="-226.4" font-family="Times Roman,serif" font-size="14.00">created_at :datetime</text>
<text text-anchor="start" x="309.5" y="-208.4" font-family="Times Roman,serif" font-size="14.00">updated_at :datetime</text>
<text text-anchor="start" x="309.5" y="-190.4" font-family="Times Roman,serif" font-size="14.00">user_id :integer</text>
</g>
<!-- Bounty&#45;&gt;Submission -->
<g id="edge2" class="edge"><title>Bounty&#45;&gt;Submission</title>
<path fill="none" stroke="#633b2f" d="M222.884,-569.646C218.142,-559.961 214.061,-550.016 211,-540 187.622,-463.492 172.2,-429.961 211,-360 228.894,-327.735 260.884,-303.842 292.53,-286.852"/>
<ellipse fill="none" stroke="#633b2f" cx="224.816" cy="-573.435" rx="4.00002" ry="4.00002"/>
<polygon fill="#633b2f" stroke="#633b2f" points="292.554,-286.84 303.504,-286.238 296.995,-284.541 301.435,-282.242 301.435,-282.242 301.435,-282.242 296.995,-284.541 299.366,-278.246 292.554,-286.84 292.554,-286.84"/>
</g>
<!-- DiscussionComment -->
<g id="node10" class="node"><title>DiscussionComment</title>
<polyline fill="none" stroke="black" points="413.5,-370 554.5,-370 "/>
<path fill="none" stroke="black" d="M554.5,-370C560.5,-370 566.5,-376 566.5,-382"/>
<polyline fill="none" stroke="black" points="566.5,-382 566.5,-518 "/>
<path fill="none" stroke="black" d="M566.5,-518C566.5,-524 560.5,-530 554.5,-530"/>
<polyline fill="none" stroke="black" points="554.5,-530 413.5,-530 "/>
<path fill="none" stroke="black" d="M413.5,-530C407.5,-530 401.5,-524 401.5,-518"/>
<polyline fill="none" stroke="black" points="401.5,-518 401.5,-382 "/>
<path fill="none" stroke="black" d="M401.5,-382C401.5,-376 407.5,-370 413.5,-370"/>
<text text-anchor="middle" x="484" y="-513.4" font-family="Times Roman,serif" font-size="14.00">DiscussionComment</text>
<polyline fill="none" stroke="black" points="401.5,-504 566.5,-504 "/>
<text text-anchor="start" x="409.5" y="-487.4" font-family="Times Roman,serif" font-size="14.00">id :integer</text>
<text text-anchor="start" x="409.5" y="-469.4" font-family="Times Roman,serif" font-size="14.00">comment :text</text>
<text text-anchor="start" x="409.5" y="-451.4" font-family="Times Roman,serif" font-size="14.00">bounty_id :integer</text>
<text text-anchor="start" x="409.5" y="-433.4" font-family="Times Roman,serif" font-size="14.00">discussion_id :integer</text>
<text text-anchor="start" x="409.5" y="-415.4" font-family="Times Roman,serif" font-size="14.00">created_at :datetime</text>
<text text-anchor="start" x="409.5" y="-397.4" font-family="Times Roman,serif" font-size="14.00">updated_at :datetime</text>
<text text-anchor="start" x="409.5" y="-379.4" font-family="Times Roman,serif" font-size="14.00">user_id :integer</text>
</g>
<!-- Bounty&#45;&gt;DiscussionComment -->
<g id="edge8" class="edge"><title>Bounty&#45;&gt;DiscussionComment</title>
<path fill="none" stroke="#82f8df" d="M386.35,-570.721C395.132,-559.864 403.997,-548.905 412.616,-538.25"/>
<ellipse fill="none" stroke="#82f8df" cx="383.814" cy="-573.856" rx="4.00002" ry="4.00002"/>
<polygon fill="#82f8df" stroke="#82f8df" points="412.864,-537.943 422.652,-532.998 416.008,-534.056 419.153,-530.168 419.153,-530.168 419.153,-530.168 416.008,-534.056 415.654,-527.338 412.864,-537.943 412.864,-537.943"/>
</g>
<!-- Comment -->
<g id="node3" class="node"><title>Comment</title>
<polyline fill="none" stroke="black" points="476,-1 622,-1 "/>
<path fill="none" stroke="black" d="M622,-1C628,-1 634,-7 634,-13"/>
<polyline fill="none" stroke="black" points="634,-13 634,-131 "/>
<path fill="none" stroke="black" d="M634,-131C634,-137 628,-143 622,-143"/>
<polyline fill="none" stroke="black" points="622,-143 476,-143 "/>
<path fill="none" stroke="black" d="M476,-143C470,-143 464,-137 464,-131"/>
<polyline fill="none" stroke="black" points="464,-131 464,-13 "/>
<path fill="none" stroke="black" d="M464,-13C464,-7 470,-1 476,-1"/>
<text text-anchor="middle" x="549" y="-126.4" font-family="Times Roman,serif" font-size="14.00">Comment</text>
<polyline fill="none" stroke="black" points="464,-117 634,-117 "/>
<text text-anchor="start" x="472" y="-100.4" font-family="Times Roman,serif" font-size="14.00">id :integer</text>
<text text-anchor="start" x="472" y="-82.4" font-family="Times Roman,serif" font-size="14.00">comment :text</text>
<text text-anchor="start" x="472" y="-64.4" font-family="Times Roman,serif" font-size="14.00">user_id :integer</text>
<text text-anchor="start" x="472" y="-46.4" font-family="Times Roman,serif" font-size="14.00">submission_id :integer</text>
<text text-anchor="start" x="472" y="-28.4" font-family="Times Roman,serif" font-size="14.00">created_at :datetime</text>
<text text-anchor="start" x="472" y="-10.4" font-family="Times Roman,serif" font-size="14.00">updated_at :datetime</text>
</g>
<!-- Role -->
<g id="node4" class="node"><title>Role</title>
<polyline fill="none" stroke="black" points="381.5,-1135 522.5,-1135 "/>
<path fill="none" stroke="black" d="M522.5,-1135C528.5,-1135 534.5,-1141 534.5,-1147"/>
<polyline fill="none" stroke="black" points="534.5,-1147 534.5,-1265 "/>
<path fill="none" stroke="black" d="M534.5,-1265C534.5,-1271 528.5,-1277 522.5,-1277"/>
<polyline fill="none" stroke="black" points="522.5,-1277 381.5,-1277 "/>
<path fill="none" stroke="black" d="M381.5,-1277C375.5,-1277 369.5,-1271 369.5,-1265"/>
<polyline fill="none" stroke="black" points="369.5,-1265 369.5,-1147 "/>
<path fill="none" stroke="black" d="M369.5,-1147C369.5,-1141 375.5,-1135 381.5,-1135"/>
<text text-anchor="middle" x="452" y="-1260.4" font-family="Times Roman,serif" font-size="14.00">Role</text>
<polyline fill="none" stroke="black" points="369.5,-1251 534.5,-1251 "/>
<text text-anchor="start" x="377.5" y="-1234.4" font-family="Times Roman,serif" font-size="14.00">id :integer</text>
<text text-anchor="start" x="377.5" y="-1216.4" font-family="Times Roman,serif" font-size="14.00">name :string</text>
<text text-anchor="start" x="377.5" y="-1198.4" font-family="Times Roman,serif" font-size="14.00">resource_id :integer</text>
<text text-anchor="start" x="377.5" y="-1180.4" font-family="Times Roman,serif" font-size="14.00">resource_type :string</text>
<text text-anchor="start" x="377.5" y="-1162.4" font-family="Times Roman,serif" font-size="14.00">created_at :datetime</text>
<text text-anchor="start" x="377.5" y="-1144.4" font-family="Times Roman,serif" font-size="14.00">updated_at :datetime</text>
</g>
<!-- User -->
<g id="node11" class="node"><title>User</title>
<polyline fill="none" stroke="black" points="337,-811 567,-811 "/>
<path fill="none" stroke="black" d="M567,-811C573,-811 579,-817 579,-823"/>
<polyline fill="none" stroke="black" points="579,-823 579,-1085 "/>
<path fill="none" stroke="black" d="M579,-1085C579,-1091 573,-1097 567,-1097"/>
<polyline fill="none" stroke="black" points="567,-1097 337,-1097 "/>
<path fill="none" stroke="black" d="M337,-1097C331,-1097 325,-1091 325,-1085"/>
<polyline fill="none" stroke="black" points="325,-1085 325,-823 "/>
<path fill="none" stroke="black" d="M325,-823C325,-817 331,-811 337,-811"/>
<text text-anchor="middle" x="452" y="-1080.4" font-family="Times Roman,serif" font-size="14.00">User</text>
<polyline fill="none" stroke="black" points="325,-1071 579,-1071 "/>
<text text-anchor="start" x="333" y="-1054.4" font-family="Times Roman,serif" font-size="14.00">id :integer</text>
<text text-anchor="start" x="333" y="-1036.4" font-family="Times Roman,serif" font-size="14.00">email :string</text>
<text text-anchor="start" x="333" y="-1018.4" font-family="Times Roman,serif" font-size="14.00">encrypted_password :string</text>
<text text-anchor="start" x="333" y="-1000.4" font-family="Times Roman,serif" font-size="14.00">reset_password_token :string</text>
<text text-anchor="start" x="333" y="-982.4" font-family="Times Roman,serif" font-size="14.00">reset_password_sent_at :datetime</text>
<text text-anchor="start" x="333" y="-964.4" font-family="Times Roman,serif" font-size="14.00">remember_created_at :datetime</text>
<text text-anchor="start" x="333" y="-946.4" font-family="Times Roman,serif" font-size="14.00">sign_in_count :integer</text>
<text text-anchor="start" x="333" y="-928.4" font-family="Times Roman,serif" font-size="14.00">current_sign_in_at :datetime</text>
<text text-anchor="start" x="333" y="-910.4" font-family="Times Roman,serif" font-size="14.00">last_sign_in_at :datetime</text>
<text text-anchor="start" x="333" y="-892.4" font-family="Times Roman,serif" font-size="14.00">current_sign_in_ip :string</text>
<text text-anchor="start" x="333" y="-874.4" font-family="Times Roman,serif" font-size="14.00">last_sign_in_ip :string</text>
<text text-anchor="start" x="333" y="-856.4" font-family="Times Roman,serif" font-size="14.00">created_at :datetime</text>
<text text-anchor="start" x="333" y="-838.4" font-family="Times Roman,serif" font-size="14.00">updated_at :datetime</text>
<text text-anchor="start" x="333" y="-820.4" font-family="Times Roman,serif" font-size="14.00">name :string</text>
</g>
<!-- Role&#45;&gt;User -->
<g id="edge10" class="edge"><title>Role&#45;&gt;User</title>
<path fill="none" stroke="#301cb9" d="M452,-1124.55C452,-1118.86 452,-1113.04 452,-1107.13"/>
<polygon fill="#301cb9" stroke="#301cb9" points="452,-1124.8 447.5,-1134.8 452,-1129.8 452,-1134.8 452,-1134.8 452,-1134.8 452,-1129.8 456.5,-1134.8 452,-1124.8 452,-1124.8"/>
<polygon fill="#301cb9" stroke="#301cb9" points="452,-1107.12 456.5,-1097.12 452,-1102.12 452,-1097.12 452,-1097.12 452,-1097.12 452,-1102.12 447.5,-1097.12 452,-1107.12 452,-1107.12"/>
</g>
<!-- Ability -->
<g id="node6" class="node"><title>Ability</title>
<polygon fill="none" stroke="black" points="552,-1180 552,-1232 612,-1232 612,-1180 552,-1180"/>
<text text-anchor="middle" x="582" y="-1215.4" font-family="Times Roman,serif" font-size="14.00">Ability</text>
<polyline fill="none" stroke="black" points="552,-1206 612,-1206 "/>
<text text-anchor="middle" x="582" y="-1189.4" font-family="Times Roman,serif" font-size="14.00"> </text>
</g>
<!-- Upload&#45;&gt;Submission -->
<g id="edge12" class="edge"><title>Upload&#45;&gt;Submission</title>
<path fill="none" stroke="#a5b0ed" d="M341.993,-353.431C344.898,-346.417 347.809,-339.387 350.669,-332.482"/>
<ellipse fill="none" stroke="#a5b0ed" cx="340.453" cy="-357.151" rx="4.00002" ry="4.00002"/>
<polygon fill="#a5b0ed" stroke="#a5b0ed" points="350.705,-332.395 358.689,-324.878 352.618,-327.775 354.531,-323.156 354.531,-323.156 354.531,-323.156 352.618,-327.775 350.374,-321.434 350.705,-332.395 350.705,-332.395"/>
</g>
<!-- Submission&#45;&gt;Comment -->
<g id="edge14" class="edge"><title>Submission&#45;&gt;Comment</title>
<path fill="none" stroke="#eb3650" d="M454.832,-174.729C462.026,-166.881 469.341,-158.9 476.553,-151.033"/>
<ellipse fill="none" stroke="#eb3650" cx="451.915" cy="-177.911" rx="4.00002" ry="4.00002"/>
<polygon fill="#eb3650" stroke="#eb3650" points="476.964,-150.585 487.038,-146.254 480.342,-146.899 483.721,-143.213 483.721,-143.213 483.721,-143.213 480.342,-146.899 480.404,-140.173 476.964,-150.585 476.964,-150.585"/>
</g>
<!-- Prelaunch -->
<g id="node9" class="node"><title>Prelaunch</title>
<polyline fill="none" stroke="black" points="641.5,-1153 782.5,-1153 "/>
<path fill="none" stroke="black" d="M782.5,-1153C788.5,-1153 794.5,-1159 794.5,-1165"/>
<polyline fill="none" stroke="black" points="794.5,-1165 794.5,-1247 "/>
<path fill="none" stroke="black" d="M794.5,-1247C794.5,-1253 788.5,-1259 782.5,-1259"/>
<polyline fill="none" stroke="black" points="782.5,-1259 641.5,-1259 "/>
<path fill="none" stroke="black" d="M641.5,-1259C635.5,-1259 629.5,-1253 629.5,-1247"/>
<polyline fill="none" stroke="black" points="629.5,-1247 629.5,-1165 "/>
<path fill="none" stroke="black" d="M629.5,-1165C629.5,-1159 635.5,-1153 641.5,-1153"/>
<text text-anchor="middle" x="712" y="-1242.4" font-family="Times Roman,serif" font-size="14.00">Prelaunch</text>
<polyline fill="none" stroke="black" points="629.5,-1233 794.5,-1233 "/>
<text text-anchor="start" x="637.5" y="-1216.4" font-family="Times Roman,serif" font-size="14.00">id :integer</text>
<text text-anchor="start" x="637.5" y="-1198.4" font-family="Times Roman,serif" font-size="14.00">email :string</text>
<text text-anchor="start" x="637.5" y="-1180.4" font-family="Times Roman,serif" font-size="14.00">created_at :datetime</text>
<text text-anchor="start" x="637.5" y="-1162.4" font-family="Times Roman,serif" font-size="14.00">updated_at :datetime</text>
</g>
<!-- User&#45;&gt;Bounty -->
<g id="edge16" class="edge"><title>User&#45;&gt;Bounty</title>
<path fill="none" stroke="#914529" d="M371.183,-803.68C367.288,-796.435 363.414,-789.23 359.604,-782.143"/>
<ellipse fill="none" stroke="#914529" cx="373.128" cy="-807.299" rx="4.00002" ry="4.00002"/>
<polygon fill="#914529" stroke="#914529" points="359.55,-782.043 358.778,-771.105 357.182,-777.639 354.815,-773.235 354.815,-773.235 354.815,-773.235 357.182,-777.639 350.851,-775.366 359.55,-782.043 359.55,-782.043"/>
</g>
<!-- User&#45;&gt;Comment -->
<g id="edge24" class="edge"><title>User&#45;&gt;Comment</title>
<path fill="none" stroke="#32ed02" d="M583.068,-804.293C588.389,-794.392 593.106,-784.265 597,-774 677.624,-561.447 615.669,-286.963 575.819,-152.904"/>
<ellipse fill="none" stroke="#32ed02" cx="581.031" cy="-807.964" rx="4.00002" ry="4.00002"/>
<polygon fill="#32ed02" stroke="#32ed02" points="575.753,-152.682 577.181,-141.81 574.312,-147.894 572.872,-143.106 572.872,-143.106 572.872,-143.106 574.312,-147.894 568.563,-144.403 575.753,-152.682 575.753,-152.682"/>
</g>
<!-- User&#45;&gt;Discussion -->
<g id="edge22" class="edge"><title>User&#45;&gt;Discussion</title>
<path fill="none" stroke="#80d4dd" d="M318.206,-874.128C279.723,-846.223 240.286,-812.198 211,-774 157.455,-704.162 123.128,-609.18 103.456,-540.12"/>
<ellipse fill="none" stroke="#80d4dd" cx="321.622" cy="-876.578" rx="4.00002" ry="4.00002"/>
<polygon fill="#80d4dd" stroke="#80d4dd" points="103.354,-539.756 104.993,-528.913 102.007,-534.941 100.66,-530.126 100.66,-530.126 100.66,-530.126 102.007,-534.941 96.3262,-531.338 103.354,-539.756 103.354,-539.756"/>
</g>
<!-- User&#45;&gt;Upload -->
<g id="edge18" class="edge"><title>User&#45;&gt;Upload</title>
<path fill="none" stroke="#f8bbc7" d="M444.661,-802.484C437.172,-731.59 422.311,-647.274 393,-576 389.111,-566.544 384.38,-557.127 379.141,-547.945"/>
<ellipse fill="none" stroke="#f8bbc7" cx="445.087" cy="-806.64" rx="4" ry="4"/>
<polygon fill="#f8bbc7" stroke="#f8bbc7" points="379.07,-547.823 377.846,-536.926 376.522,-543.521 373.974,-539.219 373.974,-539.219 373.974,-539.219 376.522,-543.521 370.102,-541.512 379.07,-547.823 379.07,-547.823"/>
</g>
<!-- User&#45;&gt;Submission -->
<g id="edge20" class="edge"><title>User&#45;&gt;Submission</title>
<path fill="none" stroke="#a0afc6" d="M538.58,-803.337C598.588,-677.254 654.669,-496.572 575,-360 553.412,-322.993 513.927,-297.657 476.438,-280.881"/>
<ellipse fill="none" stroke="#a0afc6" cx="536.723" cy="-807.2" rx="4.00002" ry="4.00002"/>
<polygon fill="#a0afc6" stroke="#a0afc6" points="476.146,-280.755 468.742,-272.665 471.554,-278.776 466.962,-276.798 466.962,-276.798 466.962,-276.798 471.554,-278.776 465.181,-280.931 476.146,-280.755 476.146,-280.755"/>
</g>
<!-- User&#45;&gt;DiscussionComment -->
<g id="edge26" class="edge"><title>User&#45;&gt;DiscussionComment</title>
<path fill="none" stroke="#e7e403" d="M461.596,-802.87C467.027,-717.332 473.637,-613.222 478.264,-540.337"/>
<ellipse fill="none" stroke="#e7e403" cx="461.338" cy="-806.93" rx="4" ry="4"/>
<polygon fill="#e7e403" stroke="#e7e403" points="478.27,-540.245 483.395,-530.55 478.587,-535.255 478.904,-530.265 478.904,-530.265 478.904,-530.265 478.587,-535.255 474.413,-529.98 478.27,-540.245 478.27,-540.245"/>
</g>
</g>
</svg>
