<?xml version="1.0" encoding="UTF-8" standalone="no"?>
<!DOCTYPE svg PUBLIC "-//W3C//DTD SVG 1.1//EN"
 "http://www.w3.org/Graphics/SVG/1.1/DTD/svg11.dtd">
<!-- Generated by graphviz version 2.26.3 (20100126.1600)
 -->
<!-- Title: models_diagram Pages: 1 -->
<svg width="700pt" height="656pt"
 viewBox="0.00 0.00 700.00 656.00" xmlns="http://www.w3.org/2000/svg" xmlns:xlink="http://www.w3.org/1999/xlink">
<g id="graph1" class="graph" transform="scale(1 1) rotate(0) translate(4 652)">
<title>models_diagram</title>
<polygon fill="white" stroke="white" points="-4,5 -4,-652 697,-652 697,5 -4,5"/>
<!-- _diagram_info -->
<g id="node1" class="node"><title>_diagram_info</title>
<text text-anchor="start" x="8" y="-597.8" font-family="Times Roman,serif" font-size="13.00">Models diagram</text>
<text text-anchor="start" x="8" y="-580.8" font-family="Times Roman,serif" font-size="13.00">Date: Jan 16 2013 &#45; 13:05</text>
<text text-anchor="start" x="8" y="-563.8" font-family="Times Roman,serif" font-size="13.00">Migration version: 20130116180154</text>
<text text-anchor="start" x="8" y="-546.8" font-family="Times Roman,serif" font-size="13.00">Generated by RailRoady 1.1.0</text>
<text text-anchor="start" x="8" y="-529.8" font-family="Times Roman,serif" font-size="13.00">http://railroady.prestonlee.com</text>
</g>
<!-- Bounty -->
<g id="node2" class="node"><title>Bounty</title>
<polyline fill="none" stroke="black" points="279.5,-487 420.5,-487 "/>
<path fill="none" stroke="black" d="M420.5,-487C426.5,-487 432.5,-493 432.5,-499"/>
<polyline fill="none" stroke="black" points="432.5,-499 432.5,-635 "/>
<path fill="none" stroke="black" d="M432.5,-635C432.5,-641 426.5,-647 420.5,-647"/>
<polyline fill="none" stroke="black" points="420.5,-647 279.5,-647 "/>
<path fill="none" stroke="black" d="M279.5,-647C273.5,-647 267.5,-641 267.5,-635"/>
<polyline fill="none" stroke="black" points="267.5,-635 267.5,-499 "/>
<path fill="none" stroke="black" d="M267.5,-499C267.5,-493 273.5,-487 279.5,-487"/>
<text text-anchor="middle" x="350" y="-630.4" font-family="Times Roman,serif" font-size="14.00">Bounty</text>
<polyline fill="none" stroke="black" points="267.5,-621 432.5,-621 "/>
<text text-anchor="start" x="275.5" y="-604.4" font-family="Times Roman,serif" font-size="14.00">id :integer</text>
<text text-anchor="start" x="275.5" y="-586.4" font-family="Times Roman,serif" font-size="14.00">user_id :integer</text>
<text text-anchor="start" x="275.5" y="-568.4" font-family="Times Roman,serif" font-size="14.00">title :string</text>
<text text-anchor="start" x="275.5" y="-550.4" font-family="Times Roman,serif" font-size="14.00">body :text</text>
<text text-anchor="start" x="275.5" y="-532.4" font-family="Times Roman,serif" font-size="14.00">bounty :integer</text>
<text text-anchor="start" x="275.5" y="-514.4" font-family="Times Roman,serif" font-size="14.00">created_at :datetime</text>
<text text-anchor="start" x="275.5" y="-496.4" font-family="Times Roman,serif" font-size="14.00">updated_at :datetime</text>
</g>
<!-- Upload -->
<g id="node5" class="node"><title>Upload</title>
<polyline fill="none" stroke="black" points="182.5,-235 323.5,-235 "/>
<path fill="none" stroke="black" d="M323.5,-235C329.5,-235 335.5,-241 335.5,-247"/>
<polyline fill="none" stroke="black" points="335.5,-247 335.5,-365 "/>
<path fill="none" stroke="black" d="M335.5,-365C335.5,-371 329.5,-377 323.5,-377"/>
<polyline fill="none" stroke="black" points="323.5,-377 182.5,-377 "/>
<path fill="none" stroke="black" d="M182.5,-377C176.5,-377 170.5,-371 170.5,-365"/>
<polyline fill="none" stroke="black" points="170.5,-365 170.5,-247 "/>
<path fill="none" stroke="black" d="M170.5,-247C170.5,-241 176.5,-235 182.5,-235"/>
<text text-anchor="middle" x="253" y="-360.4" font-family="Times Roman,serif" font-size="14.00">Upload</text>
<polyline fill="none" stroke="black" points="170.5,-351 335.5,-351 "/>
<text text-anchor="start" x="178.5" y="-334.4" font-family="Times Roman,serif" font-size="14.00">id :integer</text>
<text text-anchor="start" x="178.5" y="-316.4" font-family="Times Roman,serif" font-size="14.00">title :string</text>
<text text-anchor="start" x="178.5" y="-298.4" font-family="Times Roman,serif" font-size="14.00">upload :string</text>
<text text-anchor="start" x="178.5" y="-280.4" font-family="Times Roman,serif" font-size="14.00">created_at :datetime</text>
<text text-anchor="start" x="178.5" y="-262.4" font-family="Times Roman,serif" font-size="14.00">updated_at :datetime</text>
<text text-anchor="start" x="178.5" y="-244.4" font-family="Times Roman,serif" font-size="14.00">user_id :integer</text>
</g>
<!-- Bounty&#45;&gt;Upload -->
<g id="edge4" class="edge"><title>Bounty&#45;&gt;Upload</title>
<path fill="none" stroke="#c60942" d="M316.677,-477.337C305.738,-447.904 293.654,-415.389 282.979,-386.664"/>
<polygon fill="#c60942" stroke="#c60942" points="316.754,-477.544 316.019,-488.485 318.496,-482.231 320.238,-486.918 320.238,-486.918 320.238,-486.918 318.496,-482.231 324.456,-485.35 316.754,-477.544 316.754,-477.544"/>
<polygon fill="#c60942" stroke="#c60942" points="282.9,-386.452 283.634,-375.511 281.158,-381.765 279.416,-377.078 279.416,-377.078 279.416,-377.078 281.158,-381.765 275.198,-378.646 282.9,-386.452 282.9,-386.452"/>
</g>
<!-- Submission -->
<g id="node6" class="node"><title>Submission</title>
<polyline fill="none" stroke="black" points="237.5,-1 378.5,-1 "/>
<path fill="none" stroke="black" d="M378.5,-1C384.5,-1 390.5,-7 390.5,-13"/>
<polyline fill="none" stroke="black" points="390.5,-13 390.5,-113 "/>
<path fill="none" stroke="black" d="M390.5,-113C390.5,-119 384.5,-125 378.5,-125"/>
<polyline fill="none" stroke="black" points="378.5,-125 237.5,-125 "/>
<path fill="none" stroke="black" d="M237.5,-125C231.5,-125 225.5,-119 225.5,-113"/>
<polyline fill="none" stroke="black" points="225.5,-113 225.5,-13 "/>
<path fill="none" stroke="black" d="M225.5,-13C225.5,-7 231.5,-1 237.5,-1"/>
<text text-anchor="middle" x="308" y="-108.4" font-family="Times Roman,serif" font-size="14.00">Submission</text>
<polyline fill="none" stroke="black" points="225.5,-99 390.5,-99 "/>
<text text-anchor="start" x="233.5" y="-82.4" font-family="Times Roman,serif" font-size="14.00">id :integer</text>
<text text-anchor="start" x="233.5" y="-64.4" font-family="Times Roman,serif" font-size="14.00">upload_id :integer</text>
<text text-anchor="start" x="233.5" y="-46.4" font-family="Times Roman,serif" font-size="14.00">bounty_id :integer</text>
<text text-anchor="start" x="233.5" y="-28.4" font-family="Times Roman,serif" font-size="14.00">created_at :datetime</text>
<text text-anchor="start" x="233.5" y="-10.4" font-family="Times Roman,serif" font-size="14.00">updated_at :datetime</text>
</g>
<!-- Bounty&#45;&gt;Submission -->
<g id="edge2" class="edge"><title>Bounty&#45;&gt;Submission</title>
<path fill="none" stroke="#32035b" d="M357.086,-478.59C361.734,-395.983 363.778,-269.594 344,-162 342.361,-153.084 340.007,-143.908 337.276,-134.909"/>
<ellipse fill="none" stroke="#32035b" cx="356.847" cy="-482.701" rx="4" ry="4"/>
<polygon fill="#32035b" stroke="#32035b" points="337.228,-134.758 338.467,-123.862 335.705,-129.995 334.181,-125.233 334.181,-125.233 334.181,-125.233 335.705,-129.995 329.895,-126.604 337.228,-134.758 337.228,-134.758"/>
</g>
<!-- Role -->
<g id="node3" class="node"><title>Role</title>
<polyline fill="none" stroke="black" points="461.5,-496 602.5,-496 "/>
<path fill="none" stroke="black" d="M602.5,-496C608.5,-496 614.5,-502 614.5,-508"/>
<polyline fill="none" stroke="black" points="614.5,-508 614.5,-626 "/>
<path fill="none" stroke="black" d="M614.5,-626C614.5,-632 608.5,-638 602.5,-638"/>
<polyline fill="none" stroke="black" points="602.5,-638 461.5,-638 "/>
<path fill="none" stroke="black" d="M461.5,-638C455.5,-638 449.5,-632 449.5,-626"/>
<polyline fill="none" stroke="black" points="449.5,-626 449.5,-508 "/>
<path fill="none" stroke="black" d="M449.5,-508C449.5,-502 455.5,-496 461.5,-496"/>
<text text-anchor="middle" x="532" y="-621.4" font-family="Times Roman,serif" font-size="14.00">Role</text>
<polyline fill="none" stroke="black" points="449.5,-612 614.5,-612 "/>
<text text-anchor="start" x="457.5" y="-595.4" font-family="Times Roman,serif" font-size="14.00">id :integer</text>
<text text-anchor="start" x="457.5" y="-577.4" font-family="Times Roman,serif" font-size="14.00">name :string</text>
<text text-anchor="start" x="457.5" y="-559.4" font-family="Times Roman,serif" font-size="14.00">resource_id :integer</text>
<text text-anchor="start" x="457.5" y="-541.4" font-family="Times Roman,serif" font-size="14.00">resource_type :string</text>
<text text-anchor="start" x="457.5" y="-523.4" font-family="Times Roman,serif" font-size="14.00">created_at :datetime</text>
<text text-anchor="start" x="457.5" y="-505.4" font-family="Times Roman,serif" font-size="14.00">updated_at :datetime</text>
</g>
<!-- User -->
<g id="node7" class="node"><title>User</title>
<polyline fill="none" stroke="black" points="417,-163 647,-163 "/>
<path fill="none" stroke="black" d="M647,-163C653,-163 659,-169 659,-175"/>
<polyline fill="none" stroke="black" points="659,-175 659,-437 "/>
<path fill="none" stroke="black" d="M659,-437C659,-443 653,-449 647,-449"/>
<polyline fill="none" stroke="black" points="647,-449 417,-449 "/>
<path fill="none" stroke="black" d="M417,-449C411,-449 405,-443 405,-437"/>
<polyline fill="none" stroke="black" points="405,-437 405,-175 "/>
<path fill="none" stroke="black" d="M405,-175C405,-169 411,-163 417,-163"/>
<text text-anchor="middle" x="532" y="-432.4" font-family="Times Roman,serif" font-size="14.00">User</text>
<polyline fill="none" stroke="black" points="405,-423 659,-423 "/>
<text text-anchor="start" x="413" y="-406.4" font-family="Times Roman,serif" font-size="14.00">id :integer</text>
<text text-anchor="start" x="413" y="-388.4" font-family="Times Roman,serif" font-size="14.00">email :string</text>
<text text-anchor="start" x="413" y="-370.4" font-family="Times Roman,serif" font-size="14.00">encrypted_password :string</text>
<text text-anchor="start" x="413" y="-352.4" font-family="Times Roman,serif" font-size="14.00">reset_password_token :string</text>
<text text-anchor="start" x="413" y="-334.4" font-family="Times Roman,serif" font-size="14.00">reset_password_sent_at :datetime</text>
<text text-anchor="start" x="413" y="-316.4" font-family="Times Roman,serif" font-size="14.00">remember_created_at :datetime</text>
<text text-anchor="start" x="413" y="-298.4" font-family="Times Roman,serif" font-size="14.00">sign_in_count :integer</text>
<text text-anchor="start" x="413" y="-280.4" font-family="Times Roman,serif" font-size="14.00">current_sign_in_at :datetime</text>
<text text-anchor="start" x="413" y="-262.4" font-family="Times Roman,serif" font-size="14.00">last_sign_in_at :datetime</text>
<text text-anchor="start" x="413" y="-244.4" font-family="Times Roman,serif" font-size="14.00">current_sign_in_ip :string</text>
<text text-anchor="start" x="413" y="-226.4" font-family="Times Roman,serif" font-size="14.00">last_sign_in_ip :string</text>
<text text-anchor="start" x="413" y="-208.4" font-family="Times Roman,serif" font-size="14.00">created_at :datetime</text>
<text text-anchor="start" x="413" y="-190.4" font-family="Times Roman,serif" font-size="14.00">updated_at :datetime</text>
<text text-anchor="start" x="413" y="-172.4" font-family="Times Roman,serif" font-size="14.00">name :string</text>
</g>
<!-- Role&#45;&gt;User -->
<g id="edge6" class="edge"><title>Role&#45;&gt;User</title>
<path fill="none" stroke="#323977" d="M532,-485.653C532,-477.225 532,-468.475 532,-459.579"/>
<polygon fill="#323977" stroke="#323977" points="532,-485.681 527.5,-495.681 532,-490.681 532,-495.681 532,-495.681 532,-495.681 532,-490.681 536.5,-495.681 532,-485.681 532,-485.681"/>
<polygon fill="#323977" stroke="#323977" points="532,-459.48 536.5,-449.48 532,-454.48 532,-449.48 532,-449.48 532,-449.48 532,-454.48 527.5,-449.48 532,-459.48 532,-459.48"/>
</g>
<!-- Ability -->
<g id="node4" class="node"><title>Ability</title>
<polygon fill="none" stroke="black" points="632,-541 632,-593 692,-593 692,-541 632,-541"/>
<text text-anchor="middle" x="662" y="-576.4" font-family="Times Roman,serif" font-size="14.00">Ability</text>
<polyline fill="none" stroke="black" points="632,-567 692,-567 "/>
<text text-anchor="middle" x="662" y="-550.4" font-family="Times Roman,serif" font-size="14.00"> </text>
</g>
<!-- Upload&#45;&gt;Submission -->
<g id="edge8" class="edge"><title>Upload&#45;&gt;Submission</title>
<path fill="none" stroke="#8fb8d6" d="M270.904,-226.897C277.584,-197.385 285.127,-164.056 291.659,-135.197"/>
<ellipse fill="none" stroke="#8fb8d6" cx="270.013" cy="-230.833" rx="4.00001" ry="4.00001"/>
<polygon fill="#8fb8d6" stroke="#8fb8d6" points="291.717,-134.942 298.313,-126.183 292.82,-130.066 293.924,-125.189 293.924,-125.189 293.924,-125.189 292.82,-130.066 289.535,-124.196 291.717,-134.942 291.717,-134.942"/>
</g>
</g>
</svg>
