<?xml version="1.0" encoding="UTF-8" standalone="no"?>
<!DOCTYPE svg PUBLIC "-//W3C//DTD SVG 1.1//EN"
 "http://www.w3.org/Graphics/SVG/1.1/DTD/svg11.dtd">
<!-- Generated by graphviz version 2.26.3 (20100126.1600)
 -->
<!-- Title: models_diagram Pages: 1 -->
<svg width="615pt" height="472pt"
 viewBox="0.00 0.00 615.00 472.00" xmlns="http://www.w3.org/2000/svg" xmlns:xlink="http://www.w3.org/1999/xlink">
<g id="graph1" class="graph" transform="scale(1 1) rotate(0) translate(4 468)">
<title>models_diagram</title>
<polygon fill="white" stroke="white" points="-4,5 -4,-468 612,-468 612,5 -4,5"/>
<!-- _diagram_info -->
<g id="node1" class="node"><title>_diagram_info</title>
<text text-anchor="start" x="65" y="-447.8" font-family="Times Roman,serif" font-size="13.00">Models diagram</text>
<text text-anchor="start" x="65" y="-430.8" font-family="Times Roman,serif" font-size="13.00">Date: Jan 18 2013 &#45; 00:42</text>
<text text-anchor="start" x="65" y="-413.8" font-family="Times Roman,serif" font-size="13.00">Migration version: 20130118041607</text>
<text text-anchor="start" x="65" y="-396.8" font-family="Times Roman,serif" font-size="13.00">Generated by RailRoady 1.1.0</text>
<text text-anchor="start" x="65" y="-379.8" font-family="Times Roman,serif" font-size="13.00">http://railroady.prestonlee.com</text>
</g>
<!-- Bounty -->
<g id="node2" class="node"><title>Bounty</title>
<ellipse fill="none" stroke="black" cx="227" cy="-241" rx="46.8775" ry="18.3848"/>
<text text-anchor="middle" x="227" y="-237.4" font-family="Times Roman,serif" font-size="14.00">Bounty</text>
</g>
<!-- Discussion -->
<g id="node5" class="node"><title>Discussion</title>
<ellipse fill="none" stroke="black" cx="63" cy="-167" rx="62.9325" ry="18.3848"/>
<text text-anchor="middle" x="63" y="-163.4" font-family="Times Roman,serif" font-size="14.00">Discussion</text>
</g>
<!-- Bounty&#45;&gt;Discussion -->
<g id="edge6" class="edge"><title>Bounty&#45;&gt;Discussion</title>
<path fill="none" stroke="#3f5958" d="M188.257,-223.518C163.837,-212.5 132.246,-198.245 106.899,-186.808"/>
<ellipse fill="none" stroke="#3f5958" cx="192.121" cy="-225.262" rx="4.00002" ry="4.00002"/>
<polygon fill="#3f5958" stroke="#3f5958" points="106.634,-186.689 99.3696,-178.474 102.076,-184.632 97.5188,-182.576 97.5188,-182.576 97.5188,-182.576 102.076,-184.632 95.668,-186.677 106.634,-186.689 106.634,-186.689"/>
</g>
<!-- Upload -->
<g id="node7" class="node"><title>Upload</title>
<ellipse fill="none" stroke="black" cx="227" cy="-167" rx="44.7575" ry="18.3848"/>
<text text-anchor="middle" x="227" y="-163.4" font-family="Times Roman,serif" font-size="14.00">Upload</text>
</g>
<!-- Bounty&#45;&gt;Upload -->
<g id="edge4" class="edge"><title>Bounty&#45;&gt;Upload</title>
<path fill="none" stroke="#d629d9" d="M227,-212.282C227,-206.836 227,-201.138 227,-195.693"/>
<polygon fill="#d629d9" stroke="#d629d9" points="227,-212.327 222.5,-222.327 227,-217.327 227,-222.327 227,-222.327 227,-222.327 227,-217.327 231.5,-222.327 227,-212.327 227,-212.327"/>
<polygon fill="#d629d9" stroke="#d629d9" points="227,-195.667 231.5,-185.667 227,-190.667 227,-185.667 227,-185.667 227,-185.667 227,-190.667 222.5,-185.667 227,-195.667 227,-195.667"/>
</g>
<!-- Submission -->
<g id="node8" class="node"><title>Submission</title>
<ellipse fill="none" stroke="black" cx="314" cy="-93" rx="65.9683" ry="18.3848"/>
<text text-anchor="middle" x="314" y="-89.4" font-family="Times Roman,serif" font-size="14.00">Submission</text>
</g>
<!-- Bounty&#45;&gt;Submission -->
<g id="edge2" class="edge"><title>Bounty&#45;&gt;Submission</title>
<path fill="none" stroke="#f9a28a" d="M197.927,-219.353C188.074,-210.267 178.242,-198.822 173,-186 166.609,-170.367 163.472,-161.944 173,-148 182.951,-133.438 221.24,-119.024 255.41,-108.607"/>
<ellipse fill="none" stroke="#f9a28a" cx="201.016" cy="-222.06" rx="4.00002" ry="4.00002"/>
<polygon fill="#f9a28a" stroke="#f9a28a" points="255.792,-108.493 266.66,-109.956 260.585,-107.068 265.377,-105.642 265.377,-105.642 265.377,-105.642 260.585,-107.068 264.095,-101.329 255.792,-108.493 255.792,-108.493"/>
</g>
<!-- DiscussionComment -->
<g id="node10" class="node"><title>DiscussionComment</title>
<ellipse fill="none" stroke="black" cx="399" cy="-167" rx="109.101" ry="18.3848"/>
<text text-anchor="middle" x="399" y="-163.4" font-family="Times Roman,serif" font-size="14.00">DiscussionComment</text>
</g>
<!-- Bounty&#45;&gt;DiscussionComment -->
<g id="edge8" class="edge"><title>Bounty&#45;&gt;DiscussionComment</title>
<path fill="none" stroke="#c917f4" d="M266.486,-224.012C291.1,-213.422 322.985,-199.704 349.31,-188.378"/>
<ellipse fill="none" stroke="#c917f4" cx="262.623" cy="-225.674" rx="4.00002" ry="4.00002"/>
<polygon fill="#c917f4" stroke="#c917f4" points="349.547,-188.276 360.511,-188.458 354.14,-186.3 358.733,-184.324 358.733,-184.324 358.733,-184.324 354.14,-186.3 356.955,-180.19 349.547,-188.276 349.547,-188.276"/>
</g>
<!-- Comment -->
<g id="node3" class="node"><title>Comment</title>
<ellipse fill="none" stroke="black" cx="487" cy="-19" rx="58.1882" ry="18.3848"/>
<text text-anchor="middle" x="487" y="-15.4" font-family="Times Roman,serif" font-size="14.00">Comment</text>
</g>
<!-- Role -->
<g id="node4" class="node"><title>Role</title>
<ellipse fill="none" stroke="black" cx="357" cy="-417" rx="32.0265" ry="18.3848"/>
<text text-anchor="middle" x="357" y="-413.4" font-family="Times Roman,serif" font-size="14.00">Role</text>
</g>
<!-- User -->
<g id="node11" class="node"><title>User</title>
<ellipse fill="none" stroke="black" cx="357" cy="-315" rx="33.9411" ry="18.3848"/>
<text text-anchor="middle" x="357" y="-311.4" font-family="Times Roman,serif" font-size="14.00">User</text>
</g>
<!-- Role&#45;&gt;User -->
<g id="edge10" class="edge"><title>Role&#45;&gt;User</title>
<path fill="none" stroke="#d0a4d4" d="M357,-388.054C357,-374.256 357,-357.791 357,-343.987"/>
<polygon fill="#d0a4d4" stroke="#d0a4d4" points="357,-388.292 352.5,-398.292 357,-393.292 357,-398.292 357,-398.292 357,-398.292 357,-393.292 361.5,-398.292 357,-388.292 357,-388.292"/>
<polygon fill="#d0a4d4" stroke="#d0a4d4" points="357,-343.59 361.5,-333.59 357,-338.59 357,-333.59 357,-333.59 357,-333.59 357,-338.59 352.5,-333.59 357,-343.59 357,-343.59"/>
</g>
<!-- Ability -->
<g id="node6" class="node"><title>Ability</title>
<polygon fill="none" stroke="black" points="467,-435 407,-435 407,-399 467,-399 467,-435"/>
<text text-anchor="middle" x="437" y="-413.4" font-family="Times Roman,serif" font-size="14.00">Ability</text>
</g>
<!-- Upload&#45;&gt;Submission -->
<g id="edge12" class="edge"><title>Upload&#45;&gt;Submission</title>
<path fill="none" stroke="#29ab32" d="M253.18,-144.732C263.367,-136.067 275.068,-126.114 285.47,-117.267"/>
<ellipse fill="none" stroke="#29ab32" cx="249.789" cy="-147.617" rx="4.00002" ry="4.00002"/>
<polygon fill="#29ab32" stroke="#29ab32" points="285.506,-117.236 296.039,-114.185 289.315,-113.997 293.123,-110.757 293.123,-110.757 293.123,-110.757 289.315,-113.997 290.208,-107.329 285.506,-117.236 285.506,-117.236"/>
</g>
<!-- Submission&#45;&gt;Comment -->
<g id="edge14" class="edge"><title>Submission&#45;&gt;Comment</title>
<path fill="none" stroke="#e97a57" d="M357.89,-74.2262C383.953,-63.0778 416.896,-48.9867 442.982,-37.8286"/>
<ellipse fill="none" stroke="#e97a57" cx="353.944" cy="-75.914" rx="4.00002" ry="4.00002"/>
<polygon fill="#e97a57" stroke="#e97a57" points="443.062,-37.7942 454.026,-37.9987 447.66,-35.8278 452.257,-33.8613 452.257,-33.8613 452.257,-33.8613 447.66,-35.8278 450.487,-29.7239 443.062,-37.7942 443.062,-37.7942"/>
</g>
<!-- Prelaunch -->
<g id="node9" class="node"><title>Prelaunch</title>
<ellipse fill="none" stroke="black" cx="546" cy="-417" rx="60.8112" ry="18.3848"/>
<text text-anchor="middle" x="546" y="-413.4" font-family="Times Roman,serif" font-size="14.00">Prelaunch</text>
</g>
<!-- User&#45;&gt;Bounty -->
<g id="edge16" class="edge"><title>User&#45;&gt;Bounty</title>
<path fill="none" stroke="#fc0301" d="M326.31,-297.53C307.256,-286.684 282.688,-272.699 262.755,-261.353"/>
<ellipse fill="none" stroke="#fc0301" cx="329.982" cy="-299.62" rx="4.00002" ry="4.00002"/>
<polygon fill="#fc0301" stroke="#fc0301" points="262.65,-261.293 256.186,-252.435 258.305,-258.82 253.96,-256.346 253.96,-256.346 253.96,-256.346 258.305,-258.82 251.733,-260.257 262.65,-261.293 262.65,-261.293"/>
</g>
<!-- User&#45;&gt;Comment -->
<g id="edge24" class="edge"><title>User&#45;&gt;Comment</title>
<path fill="none" stroke="#a22b06" d="M397.63,-307.575C428.571,-300.117 470.551,-285.89 499,-260 526.195,-235.251 527.552,-221.787 536,-186 547.752,-136.217 522.534,-79.2468 504.102,-46.3649"/>
<ellipse fill="none" stroke="#a22b06" cx="393.516" cy="-308.52" rx="4.00001" ry="4.00001"/>
<polygon fill="#a22b06" stroke="#a22b06" points="503.898,-46.0136 502.777,-35.1051 501.391,-41.6876 498.884,-37.3616 498.884,-37.3616 498.884,-37.3616 501.391,-41.6876 494.99,-39.6181 503.898,-46.0136 503.898,-46.0136"/>
</g>
<!-- User&#45;&gt;Discussion -->
<g id="edge22" class="edge"><title>User&#45;&gt;Discussion</title>
<path fill="none" stroke="#f712dc" d="M316.121,-308.087C277.092,-300.321 217.508,-285.36 171,-260 138.302,-242.171 106.719,-213.158 86.244,-192.276"/>
<ellipse fill="none" stroke="#f712dc" cx="320.198" cy="-308.876" rx="4.00001" ry="4.00001"/>
<polygon fill="#f712dc" stroke="#f712dc" points="86.1593,-192.188 82.4623,-181.864 82.6904,-188.587 79.2214,-184.986 79.2214,-184.986 79.2214,-184.986 82.6904,-188.587 75.9806,-188.108 86.1593,-192.188 86.1593,-192.188"/>
</g>
<!-- User&#45;&gt;Upload -->
<g id="edge18" class="edge"><title>User&#45;&gt;Upload</title>
<path fill="none" stroke="#7e2751" d="M339.395,-291.268C324.861,-272.078 303.383,-244.628 283,-222 273.572,-211.534 262.628,-200.553 252.929,-191.179"/>
<ellipse fill="none" stroke="#7e2751" cx="341.827" cy="-294.495" rx="4.00002" ry="4.00002"/>
<polygon fill="#7e2751" stroke="#7e2751" points="252.697,-190.958 248.58,-180.794 249.084,-187.502 245.47,-184.047 245.47,-184.047 245.47,-184.047 249.084,-187.502 242.36,-187.299 252.697,-190.958 252.697,-190.958"/>
</g>
<!-- User&#45;&gt;Submission -->
<g id="edge20" class="edge"><title>User&#45;&gt;Submission</title>
<path fill="none" stroke="#cc65df" d="M391.422,-300.088C451.227,-272.101 563.679,-209.009 517,-148 500.611,-126.58 435.537,-111.566 383.425,-102.698"/>
<ellipse fill="none" stroke="#cc65df" cx="387.686" cy="-301.809" rx="4.00002" ry="4.00002"/>
<polygon fill="#cc65df" stroke="#cc65df" points="383.393,-102.693 374.262,-96.6202 378.46,-101.876 373.527,-101.06 373.527,-101.06 373.527,-101.06 378.46,-101.876 372.792,-105.499 383.393,-102.693 383.393,-102.693"/>
</g>
<!-- User&#45;&gt;DiscussionComment -->
<g id="edge26" class="edge"><title>User&#45;&gt;DiscussionComment</title>
<path fill="none" stroke="#9e9b4a" d="M364.461,-288.707C371.879,-262.568 383.225,-222.587 390.869,-195.651"/>
<ellipse fill="none" stroke="#9e9b4a" cx="363.326" cy="-292.707" rx="4.00001" ry="4.00001"/>
<polygon fill="#9e9b4a" stroke="#9e9b4a" points="390.97,-195.298 398.029,-186.906 392.335,-190.488 393.7,-185.678 393.7,-185.678 393.7,-185.678 392.335,-190.488 389.371,-184.449 390.97,-195.298 390.97,-195.298"/>
</g>
</g>
</svg>
