<?xml version="1.0" encoding="UTF-8" standalone="no"?>
<!DOCTYPE svg PUBLIC "-//W3C//DTD SVG 1.1//EN"
 "http://www.w3.org/Graphics/SVG/1.1/DTD/svg11.dtd">
<!-- Generated by graphviz version 2.26.3 (20100126.1600)
 -->
<!-- Title: models_diagram Pages: 1 -->
<svg width="418pt" height="176pt"
 viewBox="0.00 0.00 418.00 176.00" xmlns="http://www.w3.org/2000/svg" xmlns:xlink="http://www.w3.org/1999/xlink">
<g id="graph1" class="graph" transform="scale(1 1) rotate(0) translate(4 172)">
<title>models_diagram</title>
<polygon fill="white" stroke="white" points="-4,5 -4,-172 415,-172 415,5 -4,5"/>
<!-- _diagram_info -->
<g id="node1" class="node"><title>_diagram_info</title>
<text text-anchor="start" x="8" y="-151.8" font-family="Times Roman,serif" font-size="13.00">Models diagram</text>
<text text-anchor="start" x="8" y="-134.8" font-family="Times Roman,serif" font-size="13.00">Date: Jan 16 2013 &#45; 12:39</text>
<text text-anchor="start" x="8" y="-117.8" font-family="Times Roman,serif" font-size="13.00">Migration version: 20130116164457</text>
<text text-anchor="start" x="8" y="-100.8" font-family="Times Roman,serif" font-size="13.00">Generated by RailRoady 1.1.0</text>
<text text-anchor="start" x="8" y="-83.8" font-family="Times Roman,serif" font-size="13.00">http://railroady.prestonlee.com</text>
</g>
<!-- Role -->
<g id="node2" class="node"><title>Role</title>
<ellipse fill="none" stroke="black" cx="300" cy="-121" rx="32.0265" ry="18.3848"/>
<text text-anchor="middle" x="300" y="-117.4" font-family="Times Roman,serif" font-size="14.00">Role</text>
</g>
<!-- User -->
<g id="node4" class="node"><title>User</title>
<ellipse fill="none" stroke="black" cx="300" cy="-19" rx="33.9411" ry="18.3848"/>
<text text-anchor="middle" x="300" y="-15.4" font-family="Times Roman,serif" font-size="14.00">User</text>
</g>
<!-- Role&#45;&gt;User -->
<g id="edge2" class="edge"><title>Role&#45;&gt;User</title>
<path fill="none" stroke="#f7f719" d="M300,-92.0544C300,-78.2563 300,-61.7907 300,-47.9873"/>
<polygon fill="#f7f719" stroke="#f7f719" points="300,-92.2916 295.5,-102.292 300,-97.2916 300,-102.292 300,-102.292 300,-102.292 300,-97.2916 304.5,-102.292 300,-92.2916 300,-92.2916"/>
<polygon fill="#f7f719" stroke="#f7f719" points="300,-47.5898 304.5,-37.5897 300,-42.5898 300,-37.5898 300,-37.5898 300,-37.5898 300,-42.5898 295.5,-37.5898 300,-47.5898 300,-47.5898"/>
</g>
<!-- Ability -->
<g id="node3" class="node"><title>Ability</title>
<polygon fill="none" stroke="black" points="410,-139 350,-139 350,-103 410,-103 410,-139"/>
<text text-anchor="middle" x="380" y="-117.4" font-family="Times Roman,serif" font-size="14.00">Ability</text>
</g>
</g>
</svg>
