<?xml version="1.0" encoding="UTF-8" standalone="no"?>
<!DOCTYPE svg PUBLIC "-//W3C//DTD SVG 1.1//EN"
 "http://www.w3.org/Graphics/SVG/1.1/DTD/svg11.dtd">
<!-- Generated by graphviz version 2.26.3 (20100126.1600)
 -->
<!-- Title: models_diagram Pages: 1 -->
<svg width="788pt" height="176pt"
 viewBox="0.00 0.00 788.00 176.00" xmlns="http://www.w3.org/2000/svg" xmlns:xlink="http://www.w3.org/1999/xlink">
<g id="graph1" class="graph" transform="scale(1 1) rotate(0) translate(4 172)">
<title>models_diagram</title>
<polygon fill="white" stroke="white" points="-4,5 -4,-172 785,-172 785,5 -4,5"/>
<!-- _diagram_info -->
<g id="node1" class="node"><title>_diagram_info</title>
<text text-anchor="start" x="8" y="-151.8" font-family="Times Roman,serif" font-size="13.00">Models diagram</text>
<text text-anchor="start" x="8" y="-134.8" font-family="Times Roman,serif" font-size="13.00">Date: Jan 16 2013 &#45; 12:59</text>
<text text-anchor="start" x="8" y="-117.8" font-family="Times Roman,serif" font-size="13.00">Migration version: 20130116175813</text>
<text text-anchor="start" x="8" y="-100.8" font-family="Times Roman,serif" font-size="13.00">Generated by RailRoady 1.1.0</text>
<text text-anchor="start" x="8" y="-83.8" font-family="Times Roman,serif" font-size="13.00">http://railroady.prestonlee.com</text>
</g>
<!-- Bounty -->
<g id="node2" class="node"><title>Bounty</title>
<ellipse fill="none" stroke="black" cx="315" cy="-121" rx="46.8775" ry="18.3848"/>
<text text-anchor="middle" x="315" y="-117.4" font-family="Times Roman,serif" font-size="14.00">Bounty</text>
</g>
<!-- Role -->
<g id="node3" class="node"><title>Role</title>
<ellipse fill="none" stroke="black" cx="412" cy="-121" rx="32.0265" ry="18.3848"/>
<text text-anchor="middle" x="412" y="-117.4" font-family="Times Roman,serif" font-size="14.00">Role</text>
</g>
<!-- User -->
<g id="node7" class="node"><title>User</title>
<ellipse fill="none" stroke="black" cx="412" cy="-19" rx="33.9411" ry="18.3848"/>
<text text-anchor="middle" x="412" y="-15.4" font-family="Times Roman,serif" font-size="14.00">User</text>
</g>
<!-- Role&#45;&gt;User -->
<g id="edge2" class="edge"><title>Role&#45;&gt;User</title>
<path fill="none" stroke="#959782" d="M412,-92.0544C412,-78.2563 412,-61.7907 412,-47.9873"/>
<polygon fill="#959782" stroke="#959782" points="412,-92.2916 407.5,-102.292 412,-97.2916 412,-102.292 412,-102.292 412,-102.292 412,-97.2916 416.5,-102.292 412,-92.2916 412,-92.2916"/>
<polygon fill="#959782" stroke="#959782" points="412,-47.5898 416.5,-37.5897 412,-42.5898 412,-37.5898 412,-37.5898 412,-37.5898 412,-42.5898 407.5,-37.5898 412,-47.5898 412,-47.5898"/>
</g>
<!-- Ability -->
<g id="node4" class="node"><title>Ability</title>
<polygon fill="none" stroke="black" points="522,-139 462,-139 462,-103 522,-103 522,-139"/>
<text text-anchor="middle" x="492" y="-117.4" font-family="Times Roman,serif" font-size="14.00">Ability</text>
</g>
<!-- Upload -->
<g id="node5" class="node"><title>Upload</title>
<ellipse fill="none" stroke="black" cx="585" cy="-121" rx="44.7575" ry="18.3848"/>
<text text-anchor="middle" x="585" y="-117.4" font-family="Times Roman,serif" font-size="14.00">Upload</text>
</g>
<!-- Submission -->
<g id="node6" class="node"><title>Submission</title>
<ellipse fill="none" stroke="black" cx="714" cy="-121" rx="65.9683" ry="18.3848"/>
<text text-anchor="middle" x="714" y="-117.4" font-family="Times Roman,serif" font-size="14.00">Submission</text>
</g>
</g>
</svg>
